<svg width="59" height="46" viewBox="0 0 59 46" fill="none" xmlns="http://www.w3.org/2000/svg">
<rect x="53.7031" y="45.5704" width="45.5705" height="4.93135" rx="2.46568" transform="rotate(-90 53.7031 45.5704)" fill="#E9EDF7"/>
<rect x="53.7031" y="45.5704" width="10.8668" height="4.93134" rx="2.46567" transform="rotate(-90 53.7031 45.5704)" fill="#4318FF"/>
<rect x="40.2778" y="45.5704" width="45.5705" height="4.93134" rx="2.46567" transform="rotate(-90 40.2778 45.5704)" fill="#E9EDF7"/>
<rect x="40.2778" y="45.5704" width="41.364" height="4.93134" rx="2.46567" transform="rotate(-90 40.2778 45.5704)" fill="#4318FF"/>
<rect x="26.8525" y="45.5704" width="45.5705" height="4.93141" rx="2.46571" transform="rotate(-90 26.8525 45.5704)" fill="#E9EDF7"/>
<rect x="26.8525" y="45.5704" width="31.5488" height="4.93137" rx="2.46568" transform="rotate(-90 26.8525 45.5704)" fill="#4318FF"/>
<rect x="13.4277" y="45.5704" width="45.5705" height="4.9314" rx="2.4657" transform="rotate(-90 13.4277 45.5704)" fill="#E9EDF7"/>
<rect x="13.4277" y="45.5704" width="23.4863" height="4.93138" rx="2.46569" transform="rotate(-90 13.4277 45.5704)" fill="#4318FF"/>
<rect x="0.00195312" y="45.5704" width="45.5705" height="4.93137" rx="2.46568" transform="rotate(-90 0.00195312 45.5704)" fill="#E9EDF7"/>
<rect x="0.00195312" y="45.5704" width="37.508" height="4.93137" rx="2.46568" transform="rotate(-90 0.00195312 45.5704)" fill="#4318FF"/>
</svg>
