<svg width="24" height="24" viewBox="0 0 24 24" fill="none" xmlns="http://www.w3.org/2000/svg">
<path d="M1.08008 3.89685L7.58764 9.67616C8.26377 8.86508 9.28105 8.34777 10.4172 8.34777C10.9705 8.34777 11.5107 8.47279 12.0002 8.70594C12.4897 8.47279 13.0298 8.34777 13.5832 8.34777C14.7193 8.34777 15.7366 8.86508 16.4127 9.67616L22.9202 3.89685H1.08008Z" fill="#A3AED0"/>
<path d="M16.2229 14.647C16.1452 14.7448 16.0644 14.8427 15.9781 14.9404C15.4114 15.5821 14.7556 16.1154 14.2477 16.5083C13.6689 16.9559 12.8854 17.4653 12.8523 17.4868L12.0001 18.0399L11.148 17.4868C11.1149 17.4653 10.3314 16.9559 9.75262 16.5083C9.24464 16.1154 8.58895 15.5821 8.02219 14.9404C7.93589 14.8427 7.85508 14.7448 7.7774 14.647L1.06055 20.103H22.9397L16.2229 14.647Z" fill="#A3AED0"/>
<path d="M6.73388 12.0309C6.73388 11.7145 6.77405 11.4073 6.84942 11.1141L0 5.03113V18.9478L6.97477 13.2823C6.81478 12.8636 6.73388 12.4457 6.73388 12.0309Z" fill="#A3AED0"/>
<path d="M17.1507 11.1141C17.2261 11.4073 17.2663 11.7145 17.2663 12.0309C17.2663 12.4458 17.1854 12.8636 17.0254 13.2822L24.0002 18.9478V5.03113L17.1507 11.1141Z" fill="#A3AED0"/>
<path d="M13.5833 9.91309C12.9534 9.91309 12.3882 10.1882 12.0002 10.6246C11.6123 10.1882 11.047 9.91309 10.4172 9.91309C9.24755 9.91309 8.29932 10.8613 8.29932 12.031C8.29932 13.3458 9.88524 14.6321 10.7103 15.2702C11.2446 15.6835 12.0002 16.1739 12.0002 16.1739C12.0002 16.1739 12.7559 15.6834 13.2902 15.2702C14.1152 14.6321 15.7012 13.3457 15.7012 12.031C15.7012 10.8613 14.7529 9.91309 13.5833 9.91309Z" fill="#A3AED0"/>
</svg>
