<svg width="24" height="24" viewBox="0 0 24 24" fill="none" xmlns="http://www.w3.org/2000/svg">
<path d="M9.38008 21.646C10.2339 21.8796 11.1149 21.9986 12.0001 22L12.1411 21.999C12.6464 21.9927 13.142 21.8587 13.5817 21.6096C14.0214 21.3605 14.391 21.0042 14.6561 20.574C15.1981 19.698 15.2561 18.621 14.8091 17.694L14.6111 17.279C14.1581 16.337 14.5141 15.483 14.9991 14.998C15.4841 14.513 16.3401 14.157 17.2791 14.61H17.2801L17.6931 14.809C18.1472 15.0286 18.6495 15.1297 19.1533 15.1029C19.657 15.0762 20.1458 14.9224 20.5741 14.656C21.0046 14.391 21.3611 14.0215 21.6104 13.5818C21.8597 13.1421 21.9938 12.6464 22.0001 12.141C22.0126 11.2089 21.8937 10.2798 21.6471 9.38096C20.6091 5.55396 17.2941 2.62696 13.4011 2.09596C10.2521 1.66896 7.16008 2.69796 4.93008 4.92896C2.70008 7.15996 1.66608 10.247 2.09608 13.4C2.62608 17.294 5.55408 20.608 9.38008 21.646ZM15.5001 5.99996C15.8979 5.99996 16.2794 6.15799 16.5607 6.4393C16.842 6.7206 17.0001 7.10213 17.0001 7.49996C17.0001 7.89778 16.842 8.27931 16.5607 8.56062C16.2794 8.84192 15.8979 8.99996 15.5001 8.99996C15.1023 8.99996 14.7207 8.84192 14.4394 8.56062C14.1581 8.27931 14.0001 7.89778 14.0001 7.49996C14.0001 7.10213 14.1581 6.7206 14.4394 6.4393C14.7207 6.15799 15.1023 5.99996 15.5001 5.99996ZM10.5001 4.99996C10.8979 4.99996 11.2794 5.15799 11.5607 5.4393C11.842 5.7206 12.0001 6.10213 12.0001 6.49996C12.0001 6.89778 11.842 7.27931 11.5607 7.56062C11.2794 7.84192 10.8979 7.99996 10.5001 7.99996C10.1023 7.99996 9.72072 7.84192 9.43942 7.56062C9.15811 7.27931 9.00008 6.89778 9.00008 6.49996C9.00008 6.10213 9.15811 5.7206 9.43942 5.4393C9.72072 5.15799 10.1023 4.99996 10.5001 4.99996ZM9.00008 15.506C9.00008 15.9038 8.84204 16.2853 8.56074 16.5666C8.27943 16.8479 7.8979 17.006 7.50008 17.006C7.10225 17.006 6.72072 16.8479 6.43942 16.5666C6.15811 16.2853 6.00008 15.9038 6.00008 15.506C6.00008 15.1081 6.15811 14.7266 6.43942 14.4453C6.72072 14.164 7.10225 14.006 7.50008 14.006C7.8979 14.006 8.27943 14.164 8.56074 14.4453C8.84204 14.7266 9.00008 15.1081 9.00008 15.506ZM6.50008 9.00596C6.89804 9.00609 7.27964 9.1643 7.56095 9.4458C7.84225 9.72729 8.00021 10.109 8.00008 10.507C7.99995 10.9049 7.84173 11.2865 7.56024 11.5678C7.27875 11.8491 6.89704 12.0071 6.49908 12.007C6.10112 12.0068 5.71952 11.8486 5.43821 11.5671C5.15691 11.2856 4.99895 10.9039 4.99908 10.506C4.99921 10.108 5.15743 9.72639 5.43892 9.44509C5.72041 9.16378 6.10212 9.00582 6.50008 9.00596Z" fill="#A3AED0"/>
</svg>
