<svg width="44" height="44" viewBox="0 0 44 44" fill="none" xmlns="http://www.w3.org/2000/svg">
<rect width="44" height="44" rx="10" fill="#4318FF"/>
<path d="M22.0002 7.37939C16.2802 7.37939 11.1428 10.7492 8.86538 15.9618C8.75945 16.225 8.86538 16.541 9.1302 16.6463C9.39501 16.7516 9.71279 16.6463 9.81871 16.383C10.9839 13.7504 12.9435 11.5916 15.3269 10.2226C14.5854 10.9598 13.9498 11.8549 13.4732 12.8026C13.2613 13.2238 13.3143 13.7504 13.632 14.0663C14.1087 14.5928 15.0091 14.3295 15.2739 14.0663C15.4857 13.8557 15.4328 13.5924 15.2739 13.3291C15.0091 12.9079 14.4265 13.3291 14.4265 13.3291C14.4265 13.3291 15.3798 10.5386 19.0343 8.74836C19.6698 8.5904 20.2524 8.53775 20.888 8.4851C20.3583 9.01163 19.7758 9.4855 19.0872 9.90672C19.0872 9.90672 16.6509 11.381 16.2802 11.6969C16.0683 11.9075 16.0683 12.1708 16.2272 12.434C16.492 12.8026 16.8628 12.592 16.9687 12.4867C17.3395 12.2234 19.6698 10.8018 19.6698 10.8018C21.0469 10.2226 22.4769 8.4851 22.4769 8.4851C24.8602 8.5904 27.0846 9.27489 28.9913 10.4859L27.6672 11.8022C26.8728 12.592 26.1843 13.1185 25.4957 13.4871C23.748 14.4875 22.3709 15.9618 21.4706 17.752C21.2587 18.1732 21.3117 18.6997 21.6295 19.0156C22.1591 19.4895 23.0065 19.2789 23.2713 19.0156L24.1717 18.1205C24.3835 17.9099 24.3835 17.594 24.1717 17.3834C23.9598 17.1728 23.642 17.1728 23.4302 17.3834L22.4239 18.2785C22.4239 18.2785 23.2713 15.8565 26.0254 14.3822C26.8198 13.961 27.5613 13.3291 28.4087 12.4867L29.8917 11.0124C30.1565 11.223 30.4213 11.4336 30.6861 11.6443L29.0443 13.2765C28.4087 13.8557 27.8261 14.3822 27.1376 14.8034L25.6017 15.6985C25.3369 15.8565 25.2309 16.1724 25.3898 16.4356C25.6017 16.8042 26.0254 16.6989 26.1313 16.6463L27.6672 15.7512C28.4617 15.2773 29.1502 14.6981 29.7857 14.0663L31.4806 12.3814C31.8513 12.75 32.1691 13.1185 32.4869 13.4871L27.8261 18.1205C26.6609 19.2789 25.7606 20.5952 25.178 22.0168C24.5424 23.4911 23.695 24.9127 22.5828 26.229C22.3709 26.4396 22.4239 26.7556 22.6357 26.9662C22.9006 27.2294 23.2713 27.0188 23.3772 26.9135C24.5424 25.5445 25.4428 24.0176 26.1313 22.438C26.6609 21.1217 27.4554 19.9634 28.5676 18.8577L33.1224 14.3295C33.758 15.2773 34.2346 16.2777 34.6054 17.3307L32.222 19.7528C31.2157 20.5426 30.3154 22.438 30.3154 22.438C29.6269 23.5964 28.6206 24.5968 27.4554 25.2813C26.1843 26.0711 24.9661 26.9662 23.9598 27.9666L22.4769 29.4408C22.265 29.6515 21.9472 29.6515 21.7354 29.4408C21.6295 29.3355 21.4706 29.0196 21.7354 28.7037C21.9472 28.4931 21.9472 28.1772 21.7354 27.9666C21.5235 27.756 21.1528 27.756 20.9939 27.9666C20.0935 29.0196 20.6761 29.8621 20.9939 30.178C21.8413 31.0204 22.9006 30.4939 23.2183 30.178L24.7013 28.7037C25.6546 27.756 26.7669 26.8609 27.985 26.1237C29.3091 25.3339 30.3683 24.2282 31.1628 22.9646C31.1628 22.9646 32.0102 21.227 32.9635 20.4899L34.9232 18.4891C35.135 19.4895 35.2409 20.5426 35.2409 21.5956C35.2409 27.8613 30.792 33.1265 24.9132 34.4428C25.178 34.2322 25.4428 34.0743 25.7076 33.9163C25.9724 33.7584 26.0254 33.4424 25.8665 33.1792C25.7076 32.9159 25.3898 32.8633 25.125 33.0212C24.1187 33.5478 22.9006 34.7588 22.9006 34.7588C22.5828 34.7588 21.6295 34.8114 21.4706 34.7588L22.212 34.0216C22.9006 33.3371 23.4832 32.9159 24.1187 32.5473L25.6546 31.6523C26.502 31.1784 27.1906 30.5992 27.7732 29.9674C27.7732 29.9674 28.7265 29.0196 28.7795 29.0723C28.7795 29.0723 27.7732 30.8098 27.1376 31.4943C26.9257 31.7049 26.9257 32.0208 27.1376 32.2314C27.3495 32.442 27.6672 32.442 27.8791 32.2314C28.6206 31.4416 29.2561 30.5992 29.7328 29.5988C29.9446 29.1776 29.8387 28.6511 29.5739 28.3351C28.9913 27.8613 28.1969 28.0719 27.932 28.3351L27.0317 29.2302C26.502 29.8094 25.8665 30.2833 25.125 30.7045L23.5891 31.5996C22.8476 32.0208 22.212 32.5473 21.4706 33.2845L20.0935 34.6008C17.7102 34.2849 15.5387 33.2845 13.738 31.8629L15.2739 30.3359C16.0683 29.5462 16.7569 29.0196 17.4454 28.6511C19.1932 27.6507 20.5702 26.1764 21.4706 24.3862C21.6824 23.965 21.6824 23.4384 21.2587 23.0699C21.0469 22.8593 20.1465 22.596 19.6698 23.0699L18.7695 23.965C18.2398 24.5442 17.6043 25.018 16.8628 25.4392L15.3269 26.3343C14.4795 26.8082 13.7909 27.3874 13.2083 28.0192L11.5665 29.6515C11.3017 29.2829 11.0369 28.967 10.825 28.5984L15.3798 24.0703C16.598 22.8066 17.4454 21.4903 18.028 20.1213C18.8224 18.1732 20.0406 16.383 21.6295 14.8034L22.212 14.2242C22.5298 13.9083 22.9535 12.75 22.212 12.0128C21.5765 11.381 20.6232 11.381 19.9876 12.0128L18.5046 13.4871C17.5513 14.4348 16.4391 15.3299 15.2209 16.0671C13.8439 16.9095 12.7846 17.9626 12.0432 19.2262C12.0432 19.2262 11.0898 21.227 10.2954 21.7009L8.97131 23.0172C8.81242 22.596 8.75945 22.1221 8.75945 21.5956C8.75945 21.2797 8.5476 21.0691 8.22982 21.0691C7.91205 21.0691 7.7002 21.2797 7.7002 21.5956C7.7002 29.4408 14.1087 35.8118 22.0002 35.8118C29.8917 35.8118 36.3002 29.4408 36.3002 21.5956C36.3002 13.7504 29.8917 7.37939 22.0002 7.37939ZM9.07723 24.3862L10.9309 22.5434C12.0432 21.6483 12.8906 19.8581 12.8906 19.8581C13.5791 18.6997 14.5324 17.752 15.7506 17.0148C17.0217 16.225 18.2398 15.3299 19.2461 14.3295L20.7291 12.8553C20.9409 12.6447 21.2057 12.6447 21.4706 12.8553C21.7883 13.1185 21.5765 13.4871 21.4706 13.5924L20.888 14.1716C19.1932 15.8565 17.922 17.752 17.0746 19.8054C16.545 21.0691 15.7506 22.2801 14.6383 23.4384L10.2954 27.756C9.71279 26.6503 9.28908 25.5445 9.07723 24.3862ZM12.255 30.4939L13.9498 28.809C14.4795 28.2298 15.115 27.756 15.8565 27.3347L17.3924 26.4396C18.2398 25.9658 18.9283 25.3866 19.5109 24.7548C19.5109 24.7548 20.4643 23.8597 20.5172 23.8597C20.5172 23.8597 18.4517 26.9135 16.9157 27.756C16.1213 28.1772 15.3798 28.809 14.5324 29.6515L12.9435 31.231C12.7317 30.9678 12.4669 30.7572 12.255 30.4939Z" fill="white"/>
<path d="M7.8612 18.2764C7.81016 18.44 7.75911 18.6363 7.70807 18.8326C7.65703 18.9962 7.8612 19.1925 8.11642 19.2252C8.16747 19.2252 8.62686 19.2579 8.72895 18.9635C8.78 18.7999 8.83104 18.6363 8.88208 18.4727C8.93313 18.3091 8.78 18.1128 8.52478 18.0801C8.21851 17.982 7.91225 18.0801 7.8612 18.2764Z" fill="white"/>
</svg>
