<svg width="510" height="418" viewBox="0 0 510 418" fill="none" xmlns="http://www.w3.org/2000/svg">
<path d="M254.632 118.123C261.096 118.123 273.558 111.421 291.676 98.2022C304.189 89.0741 319.829 76.2855 326.198 67.7747C331.026 61.3246 336.465 52.2523 335.674 39.2539C334.359 17.6452 314.518 0.718262 290.507 0.718262C273.388 0.718262 261.384 11.8197 254.736 18.1849C248.428 11.9204 236.319 0.718262 218.624 0.718262C194.613 0.718262 174.773 17.6452 173.456 39.2551C172.655 52.4233 178.483 61.8413 182.937 67.7796C192.776 80.9053 240.318 118.123 254.632 118.123Z" fill="url(#paint0_linear_313_13708)"/>
<path d="M347.73 133.662C313.055 133.662 280.9 143.323 254.564 159.74C228.228 143.322 196.074 133.662 161.398 133.662C72.4034 133.662 0 197.287 0 275.491C0 353.695 72.4034 417.32 161.397 417.32C196.072 417.32 228.227 407.659 254.563 391.242C280.899 407.659 313.054 417.32 347.729 417.32C436.724 417.32 509.126 353.696 509.126 275.491C509.126 197.286 436.724 133.662 347.73 133.662ZM254.564 341.857C237.803 323.721 227.74 300.62 227.74 275.491C227.74 250.361 237.802 227.259 254.564 209.123C271.326 227.259 281.389 250.36 281.389 275.491C281.389 300.622 271.326 323.722 254.564 341.857ZM41.4065 275.491C41.4065 217.349 95.2349 170.047 161.397 170.047C184.046 170.047 205.248 175.592 223.341 185.215C200.235 209.758 186.333 241.223 186.333 275.49C186.333 309.756 200.235 341.222 223.341 365.764C205.248 375.387 184.046 380.932 161.397 380.932C95.2349 380.934 41.4065 333.633 41.4065 275.491ZM347.73 380.934C325.082 380.934 303.88 375.388 285.786 365.765C308.892 341.223 322.794 309.757 322.794 275.491C322.794 241.225 308.892 209.758 285.786 185.216C303.88 175.593 325.081 170.048 347.73 170.048C413.894 170.048 467.721 217.35 467.721 275.492C467.721 333.634 413.892 380.934 347.73 380.934Z" fill="url(#paint1_linear_313_13708)"/>
<defs>
<linearGradient id="paint0_linear_313_13708" x1="255.703" y1="-27.5725" x2="262.302" y2="153.277" gradientUnits="userSpaceOnUse">
<stop stop-color="white" stop-opacity="0.03"/>
<stop offset="0.489583" stop-color="white"/>
<stop offset="1" stop-color="white" stop-opacity="0"/>
</linearGradient>
<linearGradient id="paint1_linear_313_13708" x1="258.126" y1="65.3088" x2="270.418" y2="502.493" gradientUnits="userSpaceOnUse">
<stop stop-color="white" stop-opacity="0.03"/>
<stop offset="0.489583" stop-color="white"/>
<stop offset="1" stop-color="white" stop-opacity="0"/>
</linearGradient>
</defs>
</svg>
