<svg width="48" height="48" viewBox="0 0 48 48" fill="none" xmlns="http://www.w3.org/2000/svg">
<g clip-path="url(#clip0_86_427)">
<path d="M21.604 26.8655C21.9635 27.8769 22.9263 28.5565 23.9998 28.5565C25.0733 28.5565 26.0361 27.877 26.3957 26.8657C26.5373 26.467 26.3291 26.0291 25.9305 25.8874C25.532 25.7457 25.094 25.9539 24.9522 26.3526C24.8093 26.7545 24.4265 27.0247 23.9998 27.0247C23.5731 27.0247 23.1904 26.7545 23.0475 26.3527C22.9058 25.954 22.4678 25.7459 22.0692 25.8875C21.6706 26.0289 21.4624 26.4669 21.604 26.8655Z" fill="#8D9091"/>
<path d="M19.5174 23.3381H20.5823C20.6874 23.6356 20.9712 23.8488 21.3047 23.8488C21.7277 23.8488 22.0707 23.5058 22.0707 23.0828V22.5722C22.0707 22.1491 21.7277 21.8062 21.3047 21.8062H19.5174C19.0944 21.8062 18.7515 22.1491 18.7515 22.5722C18.7515 22.9952 19.0944 23.3381 19.5174 23.3381Z" fill="#8D9091"/>
<path d="M26.6957 23.8488C27.0292 23.8488 27.3129 23.6356 27.418 23.3381H28.4829C28.9059 23.3381 29.2489 22.9952 29.2489 22.5722C29.2489 22.1491 28.9059 21.8062 28.4829 21.8062H26.6957C26.2726 21.8062 25.9297 22.1491 25.9297 22.5722V23.0828C25.9297 23.5058 26.2726 23.8488 26.6957 23.8488Z" fill="#8D9091"/>
<path d="M39.8504 47.0036C38.8113 43.706 36.7046 40.7465 33.9181 38.6704C31.035 36.5223 27.6054 35.3869 24.0001 35.3869C20.3947 35.3869 16.9651 36.5223 14.0821 38.6703C11.2957 40.7464 9.18883 43.7059 8.14988 47.0035C8.02272 47.407 8.2468 47.8372 8.6502 47.9643C9.05372 48.0915 9.48388 47.8673 9.61093 47.4639C11.1272 42.6516 14.853 39.0443 19.4739 37.6046C20.4254 39.1712 22.1367 40.153 24.0001 40.153C25.8634 40.153 27.5749 39.1713 28.5262 37.6046C33.1472 39.0444 36.8729 42.6516 38.3892 47.464C38.4922 47.7909 38.7941 48 39.1196 48C39.1959 48 39.2734 47.9886 39.35 47.9644C39.7535 47.8372 39.9775 47.407 39.8504 47.0036ZM24.0001 38.621C22.8403 38.621 21.7647 38.0844 21.0607 37.2035C22.0145 37.0166 22.9977 36.9188 24.0001 36.9188C25.0026 36.9188 25.9857 37.0166 26.9396 37.2035C26.2355 38.0844 25.1599 38.621 24.0001 38.621Z" fill="#8D9091"/>
<path d="M12.2439 26.3157C12.9564 26.9641 13.8565 27.3353 14.746 27.3672C15.8898 31.4002 19.6053 34.3631 23.9999 34.3631C28.3945 34.3631 32.11 31.4003 33.2538 27.3672C34.1432 27.3353 35.0435 26.9641 35.7559 26.3157C37.255 24.9509 37.5014 22.7716 36.3052 21.4575C35.5881 20.6697 34.4856 20.3502 33.3761 20.5577C33.0047 18.9244 32.2141 17.4273 31.0615 16.1805L24.936 4.23294L26.889 2.27993C27.1882 1.98079 27.1882 1.49578 26.889 1.19675C26.59 0.897611 26.105 0.897611 25.8058 1.19675L24.7659 2.23673V0.765967C24.7659 0.342949 24.4229 0 23.9999 0C23.5769 0 23.2339 0.342949 23.2339 0.765967V2.23673L22.194 1.19675C21.8948 0.897611 21.4098 0.897611 21.1108 1.19675C20.8116 1.49588 20.8116 1.98089 21.1108 2.27993L23.0638 4.23294L16.9382 16.1805C15.7856 17.4273 14.9951 18.9244 14.6236 20.5577C13.5142 20.3502 12.4117 20.6697 11.6945 21.4575C10.4984 22.7716 10.7448 24.9509 12.2439 26.3157ZM23.9999 5.76477L29.1734 15.8554H18.8264L23.9999 5.76477ZM12.8273 22.4887C13.2908 21.9797 14.1232 21.8817 14.899 22.2446C15.1202 22.3482 15.3778 22.3399 15.5919 22.2224C15.8062 22.105 15.9515 21.8923 15.9832 21.65C16.1907 20.0608 16.8554 18.5937 17.9113 17.3874H23.3167C23.6689 19.0076 25.1135 20.2252 26.8378 20.2252C27.2608 20.2252 27.6037 19.8823 27.6037 19.4592C27.6037 19.0362 27.2608 18.6933 26.8378 18.6933C25.966 18.6933 25.2197 18.1514 24.9144 17.3874H30.0884C31.1443 18.5938 31.809 20.0608 32.0165 21.65C32.0482 21.8923 32.1935 22.105 32.4078 22.2224C32.6221 22.3399 32.8795 22.3481 33.1007 22.2446C33.8766 21.8815 34.709 21.9798 35.1724 22.4887C35.8 23.1781 35.5991 24.3867 34.7246 25.1828C34.3796 25.4968 33.972 25.7066 33.5596 25.7935C33.597 25.4494 33.6168 25.1002 33.6168 24.7464C33.6168 24.3233 33.2738 23.9804 32.8508 23.9804C32.4278 23.9804 32.0848 24.3233 32.0848 24.7464C32.0848 29.2043 28.4579 32.8312 23.9998 32.8312C19.5417 32.8312 15.9148 29.2044 15.9148 24.7464C15.9148 24.3233 15.5718 23.9804 15.1488 23.9804C14.7258 23.9804 14.3828 24.3233 14.3828 24.7464C14.3828 25.1001 14.4026 25.4494 14.44 25.7935C14.0276 25.7066 13.62 25.4968 13.275 25.1828C12.4007 24.3867 12.1998 23.1782 12.8273 22.4887Z" fill="#8D9091"/>
</g>
<defs>
<clipPath id="clip0_86_427">
<rect width="48" height="48" fill="white"/>
</clipPath>
</defs>
</svg>
