<svg width="48" height="48" viewBox="0 0 48 48" fill="none" xmlns="http://www.w3.org/2000/svg">
<path d="M38.2885 29.7066C38.3323 29.6662 38.3756 29.6251 38.4184 29.583C39.4558 28.5628 40.0271 27.1997 40.0271 25.7448V23C40.0271 20.243 37.7841 18 35.0271 18H32.1859C30.573 18 29.2609 19.3122 29.2609 20.925V25.6727C29.2609 27.0625 29.7844 28.3393 30.6423 29.3077C29.9569 29.5205 29.3342 29.916 28.8463 30.4617L25.1779 34.0307C25.1588 34.0494 25.1403 34.0688 25.1226 34.089C24.8941 34.3503 24.5639 34.5001 24.2167 34.5001C23.8695 34.5001 23.5394 34.3503 23.3108 34.089C23.2837 34.058 23.2547 34.0288 23.224 34.0014L19.2715 30.4739C18.7534 29.9083 18.0398 29.5639 17.2785 29.5081C17.7721 28.5033 18.0493 27.3741 18.0494 26.1811L18.0496 23.8588C18.0497 22.4557 17.5034 21.1366 16.5113 20.1444C15.5192 19.1522 14.2002 18.6058 12.7969 18.6058H12.6869C9.70685 18.6058 7.28245 21.0206 7.28245 23.9889C7.28245 26.4689 6.17175 28.7799 4.23504 30.3292L3.39844 30.9985C2.87794 31.415 2.68414 32.0905 2.90474 32.7196C3.12544 33.3486 3.69874 33.7551 4.36535 33.7551H6.43335C6.27725 34.1055 6.14135 34.4713 6.02595 34.8512L3.33704 43.704C2.99854 44.8183 3.19404 46.058 3.84744 46.9392C4.34754 47.6133 5.07335 48 5.83925 48H18.3965C19.1622 48 19.8881 47.6133 20.388 46.9391C21.0413 46.0579 21.2369 44.8183 20.8984 43.7039L18.4702 35.7094C18.3097 35.1809 17.7511 34.8828 17.2227 35.0432C16.6943 35.2037 16.3959 35.7622 16.5565 36.2907L18.9847 44.2852C19.1616 44.8676 19.01 45.4395 18.7813 45.748C18.7116 45.8421 18.5687 46.0001 18.3964 46.0001H5.83925C5.66695 46.0001 5.52415 45.8422 5.45435 45.748C5.22565 45.4396 5.07405 44.8676 5.25105 44.2852L7.93995 35.4324C8.12625 34.819 8.37855 34.2568 8.69205 33.7551H10.4747C12.5802 33.7551 14.4878 32.8917 15.862 31.5001C17.2362 30.1085 17.0592 31.5001 17.0592 31.5001C17.3476 31.5001 17.6219 31.6246 17.8118 31.8416C17.8389 31.8726 17.8679 31.9018 17.8985 31.9292L21.8506 35.4563C22.4569 36.1205 23.3152 36.5001 24.2167 36.5001C25.126 36.5001 25.9916 36.1138 26.5986 35.4388L30.2675 31.8692C30.2866 31.8505 30.3051 31.8311 30.3227 31.811C30.7026 31.3769 31.2512 31.1279 31.8279 31.1279H34.6443H34.6458H36.2162C36.798 31.1279 37.3306 31.3681 37.7156 31.8043C38.1006 32.2405 38.2729 32.7986 38.1998 33.3844L37.6085 38.4656L34.8294 39.8552L32.2116 38.5463L31.8346 35.3817C31.7693 34.8333 31.2715 34.4415 30.7234 34.507C30.175 34.5723 29.7834 35.0698 29.8487 35.6182L31.1148 46.2481C31.2397 47.2468 32.0929 48 33.0994 48H36.7318C37.7384 48 38.5916 47.2468 38.7172 46.2396L40.1853 33.624C40.3276 32.4861 39.9739 31.3404 39.2149 30.4807C38.9444 30.1741 38.6314 29.9142 38.2885 29.7066ZM16.0495 26.1809C16.0492 29.2545 13.5483 31.755 10.4747 31.755H10.2914C11.6718 30.6525 12.7643 29.1459 13.3879 27.3679C13.5708 26.8467 13.2964 26.2761 12.7752 26.0932C12.2546 25.9107 11.6835 26.1847 11.5006 26.7058C10.5697 29.3598 8.33655 31.2484 5.75445 31.6673C8.00135 29.7413 9.28265 26.9627 9.28265 23.9887C9.28265 22.1233 10.8098 20.6056 12.6872 20.6056H12.7971C13.6659 20.6056 14.4827 20.944 15.0971 21.5584C15.7115 22.1728 16.0498 22.9897 16.0497 23.8584L16.0495 26.1809ZM38.0272 25.7448C38.0271 26.6592 37.668 27.5158 37.016 28.157C36.3641 28.7981 35.4993 29.141 34.5857 29.1274C32.7524 29.0968 31.2609 27.547 31.2609 25.6727V25.3943C32.3807 26.074 33.7229 26.4443 35.0919 26.4443C35.6441 26.4443 36.0919 25.9966 36.0919 25.4443C36.0919 24.892 35.6441 24.4443 35.0919 24.4443C33.9671 24.4443 32.8757 24.1092 32.0189 23.5008C31.5443 23.1638 31.261 22.6028 31.261 22V20.925C31.261 20.4149 31.6759 20 32.186 20H35.0272C36.6814 20 38.0272 21.3458 38.0272 23V25.7448ZM36.7319 46L33.1002 46.0058L32.4949 40.924L34.3823 41.8677C34.6637 42.0084 34.9952 42.0084 35.2766 41.8677L37.3323 40.8399L36.7319 46Z" fill="#8D9091"/>
<path d="M34.6153 0C32.2651 0 29.9531 0.6201 27.9292 1.7932C26.4068 2.6756 25.0693 3.8549 24 5.2492C22.9307 3.8549 21.5931 2.6755 20.0708 1.7932C18.0468 0.6201 15.7348 0 13.3846 0C6.0043 0 0 6.0224 0 13.425C0 16.4691 1.1135 19.3957 3.1353 21.6655C3.3329 21.8874 3.607 22.0004 3.8824 22.0004C4.119 22.0004 4.3565 21.9169 4.5471 21.7471C4.9595 21.3797 4.996 20.7476 4.6286 20.3352C2.9335 18.4321 2 15.978 2 13.425C2 7.1252 7.1071 2 13.3847 2C17.4127 2 21.0605 4.0704 23.1427 7.5383C23.3234 7.8394 23.6489 8.0236 24 8.0236C24.3511 8.0236 24.6765 7.8394 24.8573 7.5383C26.9394 4.0704 30.5874 2 34.6154 2C40.8929 2 46 7.1252 46 13.425C46 15.9779 45.0665 18.4319 43.3716 20.3349C43.0043 20.7473 43.0408 21.3794 43.4532 21.7467C43.8657 22.1141 44.4978 22.0776 44.8651 21.6651C46.8867 19.3954 48 16.4689 48 13.425C48 6.0224 41.9957 0 34.6153 0Z" fill="#8D9091"/>
</svg>
