<svg width="24" height="24" viewBox="0 0 24 24" fill="none" xmlns="http://www.w3.org/2000/svg">
<path d="M19.144 14.8533C19.1659 14.8331 19.1875 14.8125 19.2089 14.7915C19.7276 14.2814 20.0133 13.5999 20.0133 12.8724V11.5C20.0133 10.1215 18.8918 9 17.5133 9H16.0927C15.2862 9 14.6302 9.6561 14.6302 10.4625V12.8363C14.6302 13.5312 14.8919 14.1697 15.3209 14.6539C14.9782 14.7603 14.6668 14.958 14.4229 15.2309L12.5887 17.0154C12.5791 17.0247 12.5699 17.0344 12.561 17.0445C12.4468 17.1752 12.2817 17.2501 12.1081 17.2501C11.9345 17.2501 11.7694 17.1752 11.6551 17.0445C11.6416 17.029 11.6271 17.0144 11.6117 17.0007L9.63548 15.237C9.37643 14.9542 9.01963 14.7819 8.63898 14.754C8.88578 14.2516 9.02438 13.6871 9.02443 13.0906L9.02453 11.9294C9.02458 11.2278 8.75143 10.5683 8.25538 10.0722C7.75933 9.5761 7.09983 9.3029 6.39823 9.3029H6.34323C4.85318 9.3029 3.64098 10.5103 3.64098 11.9945C3.64098 13.2345 3.08563 14.3899 2.11728 15.1646L1.69898 15.4992C1.43873 15.7075 1.34183 16.0453 1.45213 16.3598C1.56248 16.6743 1.84913 16.8775 2.18243 16.8775H3.21643C3.13838 17.0527 3.07043 17.2357 3.01273 17.4256L1.66828 21.852C1.49903 22.4092 1.59678 23.029 1.92348 23.4696C2.17353 23.8067 2.53643 24 2.91938 24H9.19798C9.58083 24 9.94378 23.8067 10.1937 23.4696C10.5204 23.0289 10.6182 22.4092 10.4489 21.852L9.23483 17.8547C9.15458 17.5905 8.87528 17.4414 8.61108 17.5216C8.34688 17.6019 8.19768 17.8811 8.27798 18.1454L9.49208 22.1426C9.58053 22.4338 9.50473 22.7198 9.39038 22.874C9.35553 22.9211 9.28408 23.0001 9.19793 23.0001H2.91938C2.83323 23.0001 2.76183 22.9211 2.72693 22.874C2.61258 22.7198 2.53678 22.4338 2.62528 22.1426L3.96973 17.7162C4.06288 17.4095 4.18903 17.1284 4.34578 16.8775H5.23713C6.28988 16.8775 7.24363 16.4459 7.93073 15.7501H8.52933C8.67353 15.7501 8.81068 15.8123 8.90563 15.9208C8.91918 15.9363 8.93368 15.9509 8.94898 15.9646L10.925 17.7281C11.2282 18.0602 11.6573 18.2501 12.1081 18.2501C12.5627 18.2501 12.9955 18.0569 13.299 17.7194L15.1335 15.9346C15.143 15.9252 15.1523 15.9155 15.1611 15.9055C15.351 15.6884 15.6253 15.5639 15.9137 15.5639H17.3219C17.322 15.5639 17.3224 15.5639 17.3226 15.5639H18.1078C18.3987 15.5639 18.665 15.6841 18.8575 15.9022C19.05 16.1203 19.1362 16.3993 19.0996 16.6922L18.804 19.2328L17.4144 19.9276L16.1055 19.2732L15.917 17.6908C15.8844 17.4166 15.6355 17.2208 15.3614 17.2535C15.0872 17.2862 14.8914 17.5349 14.9241 17.8091L15.5571 23.124C15.6196 23.6234 16.0462 24 16.5494 24H18.3656C18.8689 24 19.2955 23.6234 19.3583 23.1198L20.0924 16.812C20.1635 16.243 19.9867 15.6702 19.6072 15.2404C19.4719 15.0871 19.3154 14.9571 19.144 14.8533ZM8.02448 13.0904C8.02433 14.6272 6.77388 15.8775 5.23713 15.8775H5.14548C5.83568 15.3262 6.38193 14.5729 6.69373 13.6839C6.78513 13.4233 6.64798 13.1381 6.38738 13.0466C6.12708 12.9554 5.84153 13.0924 5.75008 13.3529C5.28463 14.6799 4.16803 15.6242 2.87698 15.8337C4.00043 14.8707 4.64108 13.4813 4.64108 11.9943C4.64108 11.0616 5.40468 10.3028 6.34333 10.3028H6.39833C6.83273 10.3028 7.24113 10.472 7.54833 10.7792C7.85553 11.0864 8.02463 11.4948 8.02458 11.9292L8.02448 13.0904ZM19.0133 12.8724C19.0133 13.3296 18.8337 13.7579 18.5077 14.0785C18.1818 14.3991 17.7494 14.5705 17.2926 14.5637C16.3759 14.5484 15.6302 13.7735 15.6302 12.8363V12.6971C16.1901 13.037 16.8612 13.2221 17.5457 13.2221C17.8218 13.2221 18.0457 12.9983 18.0457 12.7221C18.0457 12.446 17.8218 12.2221 17.5457 12.2221C16.9833 12.2221 16.4376 12.0546 16.0092 11.7504C15.7719 11.5819 15.6302 11.3014 15.6302 11V10.4625C15.6302 10.2075 15.8377 10 16.0927 10H17.5133C18.3404 10 19.0133 10.6729 19.0133 11.5V12.8724ZM18.3657 23L16.5498 23.0029L16.2472 20.462L17.1909 20.9339C17.3316 21.0042 17.4973 21.0042 17.638 20.9339L18.6659 20.4199L18.3657 23Z" fill="#4318FF"/>
<path d="M17.3077 0C16.1326 0 14.9766 0.31005 13.9646 0.8966C13.2034 1.3378 12.5346 1.92745 12 2.6246C11.4654 1.92745 10.7965 1.33775 10.0354 0.8966C9.0234 0.31005 7.8674 0 6.6923 0C3.00215 0 0 3.0112 0 6.7125C0 8.23455 0.55675 9.69785 1.56765 10.8328C1.66645 10.9437 1.8035 11.0002 1.9412 11.0002C2.0595 11.0002 2.17825 10.9584 2.27355 10.8735C2.47975 10.6898 2.498 10.3738 2.3143 10.1676C1.46675 9.21605 1 7.989 1 6.7125C1 3.5626 3.55355 1 6.69235 1C8.70635 1 10.5303 2.0352 11.5714 3.76915C11.6617 3.9197 11.8245 4.0118 12 4.0118C12.1756 4.0118 12.3383 3.9197 12.4286 3.76915C13.4697 2.0352 15.2937 1 17.3077 1C20.4464 1 23 3.5626 23 6.7125C23 7.98895 22.5333 9.21595 21.6858 10.1674C21.5021 10.3737 21.5204 10.6897 21.7266 10.8734C21.9329 11.057 22.2489 11.0388 22.4326 10.8326C23.4433 9.6977 24 8.23445 24 6.7125C24 3.0112 20.9979 0 17.3077 0Z" fill="#4318FF"/>
</svg>
