<?xml version='1.0' encoding='iso-8859-1'?>
<svg version="1.1" xmlns="http://www.w3.org/2000/svg" viewBox="0 0 469.994 469.994" xmlns:xlink="http://www.w3.org/1999/xlink" enable-background="new 0 0 469.994 469.994">
  <g>
    <path fill="#8D9091" d="m390.196,460.238c-7.893-25.049-22.081-48.102-40.783-66.673 7.716-2.751 14.396-8.014 18.924-15.211 3.718-5.911 5.684-12.741 5.684-19.751 0-17.908-12.741-32.895-29.635-36.373v-60.205c2.006-1.265 3.925-2.718 5.721-4.353 14.68-13.363 17.093-34.702 5.38-47.569-7.022-7.713-17.814-10.841-28.681-8.81-3.636-15.993-11.377-30.651-22.663-42.86l-59.866-116.766 19.344-19.343c2.929-2.929 2.929-7.678 0-10.606-2.929-2.929-7.677-2.929-10.607,0l-10.184,10.182v-14.4c0-4.142-3.357-7.5-7.5-7.5-4.142,0-7.5,3.358-7.5,7.5v14.401l-10.183-10.183c-2.929-2.929-7.678-2.929-10.606,0-2.929,2.929-2.929,7.678 0,10.606l18.903,18.902-60.091,117.204c-11.287,12.209-19.028,26.867-22.664,42.861-10.864-2.035-21.658,1.096-28.681,8.81-11.712,12.867-9.299,34.207 5.38,47.569 1.796,1.634 3.714,3.087 5.72,4.352v60.206c-16.894,3.478-29.634,18.465-29.634,36.373 0,16.083 10.28,29.807 24.612,34.957-18.705,18.572-32.895,41.627-40.789,66.678-1.245,3.951 0.949,8.163 4.899,9.407 3.953,1.246 8.163-0.949 9.407-4.899 8.877-28.173 25.49-52.126 47.083-69.849 0.899-0.465 1.694-1.103 2.334-1.875 8.992-7.079 18.803-13.099 29.247-17.922 14.138,20.128 37.411,32.394 62.228,32.394 24.818,0 48.091-12.266 62.228-32.394 10.444,4.823 20.256,10.844 29.249,17.924 0.64,0.771 1.434,1.408 2.331,1.873 21.594,17.724 38.207,41.677 47.084,69.85 1.009,3.201 3.965,5.248 7.151,5.248 0.746,0 1.506-0.112 2.256-0.349 3.952-1.244 6.147-5.456 4.902-9.406zm-155.199-403.792l50.657,98.803h-101.313l50.656-98.803zm-109.397,163.753c4.537-4.984 12.689-5.944 20.285-2.39 2.166,1.014 4.687,0.933 6.785-0.217 2.098-1.15 3.521-3.233 3.831-5.605 2.032-15.561 8.541-29.926 18.88-41.738h119.233c10.339,11.813 16.847,26.178 18.88,41.738 0.31,2.372 1.732,4.455 3.83,5.605 2.098,1.15 4.618,1.23 6.785,0.217 7.594-3.555 15.746-2.594 20.285,2.39 6.145,6.75 4.178,18.584-4.386,26.379-1.622,1.476-3.386,2.714-5.229,3.7-0.77,0.225-1.489,0.567-2.135,1.011-1.328,0.553-2.683,0.98-4.043,1.267 0.366-3.368 0.56-6.787 0.56-10.251 0-4.142-3.357-7.5-7.5-7.5s-7.5,3.358-7.5,7.5c0,43.65-35.513,79.163-79.165,79.163-43.651,0-79.164-35.512-79.164-79.163 0-4.142-3.358-7.5-7.5-7.5s-7.5,3.358-7.5,7.5c0,3.464 0.194,6.884 0.56,10.253-1.36-0.287-2.714-0.713-4.042-1.267-0.646-0.444-1.366-0.787-2.137-1.013-1.842-0.986-3.606-2.224-5.228-3.701-8.562-7.794-10.529-19.627-4.385-26.378zm-14.626,138.403c0-12.205 9.929-22.134 22.134-22.134 4.142,0 7.5-3.358 7.5-7.5v-61.337c1.258,0.183 2.519,0.291 3.779,0.336 11.2,39.489 47.58,68.501 90.609,68.501s79.41-29.011 90.61-68.501c1.259-0.045 2.521-0.154 3.778-0.337v61.338c0,4.142 3.357,7.5 7.5,7.5 12.205,0 22.135,9.929 22.135,22.134 0,4.18-1.169,8.249-3.381,11.764-4.085,6.494-11.096,10.371-18.754,10.371h-2.032c-0.907-0.707-1.821-1.406-2.744-2.094-28.229-21.033-61.811-32.151-97.113-32.151-35.302,0-68.883,11.117-97.112,32.15-0.923,0.688-1.837,1.387-2.744,2.094h-2.032c-12.203,0.001-22.133-9.929-22.133-22.134zm124.022,33.891c-18.714,0-36.335-8.693-47.812-23.146 15.071-5.112 31.17-7.854 47.812-7.854 16.642,0 32.741,2.742 47.812,7.854-11.475,14.452-29.096,23.146-47.812,23.146z"/>
    <path fill="#8D9091" d="m253.902,253.476c-3.905-1.387-8.192,0.652-9.579,4.555-1.399,3.936-5.147,6.581-9.326,6.581s-7.926-2.645-9.325-6.581c-1.388-3.903-5.678-5.94-9.579-4.555-3.903,1.388-5.942,5.676-4.555,9.579 3.521,9.903 12.948,16.556 23.459,16.556 10.511,0 19.938-6.653 23.459-16.556 1.387-3.903-0.652-8.191-4.554-9.579z"/>
    <path fill="#8D9091" d="m216.105,226.016v-5c0-4.142-3.358-7.5-7.5-7.5h-17.5c-4.142,0-7.5,3.358-7.5,7.5s3.358,7.5 7.5,7.5h10.427c1.029,2.913 3.808,5 7.073,5 4.142,0 7.5-3.358 7.5-7.5z"/>
    <path fill="#8D9091" d="m278.89,213.516h-17.501c-4.143,0-7.5,3.358-7.5,7.5v5c0,4.142 3.357,7.5 7.5,7.5 3.266,0 6.044-2.087 7.073-5h10.428c4.143,0 7.5-3.358 7.5-7.5s-3.358-7.5-7.5-7.5z"/>
    <path fill="#8D9091" d="m188.086,198.036h93.823c4.143,0 7.5-3.358 7.5-7.5s-3.357-7.5-7.5-7.5h-93.823c-4.142,0-7.5,3.358-7.5,7.5s3.358,7.5 7.5,7.5z"/>
  </g>
</svg>
