<svg width="132" height="131" viewBox="0 0 132 131" fill="none" xmlns="http://www.w3.org/2000/svg">
<path d="M131.422 95.0285C131.422 94.0267 130.605 93.2058 129.599 93.2058H103.286C102.05 88.402 99.3824 84.1652 95.7444 80.9863C95.664 80.9093 95.5736 80.8364 95.4966 80.7601C95.369 80.6616 95.2441 80.5448 95.1172 80.4394C92.8604 78.4439 90.1811 76.7103 87.0858 75.2913H108.062C109.06 75.2913 109.885 74.4778 109.885 73.4686C109.885 72.4735 109.06 71.6459 108.062 71.6459H71.7569C71.4511 71.6317 71.1662 71.5872 70.8597 71.573C69.7559 71.5143 68.6812 71.4967 67.6551 71.4967C66.3576 71.4967 65.1566 71.573 63.9597 71.6466H59.781V69.2116C60.1435 66.2014 60.3008 62.8692 60.13 59.103C60.0659 57.686 59.9451 56.3331 59.781 55.0161V23.3745C59.781 22.3714 58.9621 21.5525 57.9583 21.5525C56.9545 21.5525 56.1356 22.3714 56.1356 23.3745V42.2639C54.7618 39.4015 53.1025 36.9166 51.2231 34.7955C51.1448 34.7023 51.0597 34.6031 50.9881 34.5173C50.8882 34.4107 50.7748 34.2898 50.6675 34.1683C47.4487 30.473 43.1343 27.7889 38.2285 26.5926V1.82271C38.2285 0.818863 37.4097 0 36.4058 0C35.402 0 34.5831 0.818863 34.5831 1.82271V25.9803C34.2773 25.9445 33.9641 25.9378 33.6508 25.9236C33.0669 19.2059 27.2639 13.8728 20.0939 13.8195L8.93018 13.7263C8.90926 13.7263 8.88765 13.7263 8.87347 13.7263C6.47358 13.7263 4.32346 15.3074 2.79982 18.1697C1.48274 20.6722 0.728012 24.0111 0.699661 27.5533C0.642944 34.1602 3.58291 39.1767 7.53481 39.2091C7.54898 39.2091 7.56316 39.2091 7.57058 39.2091C9.38586 39.2091 11.0877 37.7064 12.3555 34.973C13.3594 32.7871 13.9717 30.1098 14.0007 27.7673C14.0216 25.742 13.7651 23.6662 13.3027 22.071C12.3771 18.8313 10.7677 18.1474 9.57894 18.1339C9.56476 18.1339 9.55058 18.1339 9.54315 18.1339C8.57442 18.1339 7.62391 18.597 6.77332 19.4652C6.08946 20.1632 5.52712 21.0671 5.1214 22.1216C5.36308 21.2953 5.66956 20.5331 6.03275 19.8641C6.87323 18.2696 7.91284 17.365 8.87415 17.365C8.88091 17.365 8.88091 17.365 8.88833 17.365L20.0595 17.4582C25.6559 17.5074 30.1634 21.83 30.1276 27.0983C30.1134 29.54 29.1163 31.8542 27.3152 33.6127C25.3859 35.5131 22.7942 36.5527 20.0102 36.5527C19.9677 36.5527 19.9319 36.5527 19.9036 36.5527L18.2159 36.5385C19.5012 32.48 21.2206 24.3844 17.2262 18.4465C16.6639 17.6134 15.5243 17.3994 14.6987 17.955C13.8623 18.5174 13.6382 19.6495 14.2005 20.4825C18.5223 26.8903 13.9939 37.5059 13.9588 37.6126C13.7199 38.1648 13.7664 38.823 14.1013 39.336C14.4354 39.8491 15.0052 40.1623 15.6175 40.1623L19.882 40.1981C23.8197 40.1623 27.2335 38.8237 29.8792 36.2111C31.766 34.3601 33.0048 32.0601 33.5172 29.5677C33.8803 29.5893 34.2294 29.5893 34.5926 29.6359V65.8672C29.2885 64.8418 25.2225 60.4342 24.6244 54.9877C25.3973 54.7028 26.1122 54.2694 26.6962 53.6639C27.8074 52.5385 28.4048 51.0507 28.3906 49.4696C28.3764 47.8926 27.7432 46.4081 26.6219 45.3044C25.5074 44.2155 24.037 43.61 22.4743 43.61C20.879 43.61 19.377 44.2364 18.2557 45.3827C15.9773 47.7036 16.0131 51.4564 18.33 53.7415C19.0773 54.4753 20.0102 54.9377 20.9999 55.1801C21.3273 58.5973 22.7085 61.6878 24.8444 64.1512C22.9725 65.0558 21.5764 66.4438 20.7434 68.3664C17.8385 75.0145 22.7585 85.4593 22.965 85.9042C23.2499 86.5023 23.8332 86.8993 24.5096 86.9344C25.186 86.9931 25.7983 86.6353 26.1615 86.0676C28.1699 82.8049 29.6787 81.5182 31.3306 80.5853C32.4769 79.9358 33.5948 79.277 34.5912 78.5614V94.0402C34.5838 94.2805 34.5487 94.5175 34.5487 94.7572C34.5487 94.8301 34.5844 94.8854 34.5912 94.9583V95.0488C34.5912 96.0445 35.4101 96.8715 36.4139 96.8715H51.622C50.8389 97.932 50.1126 99.1357 49.4044 100.398C48.4674 102.048 47.1935 103.557 43.9181 105.567C43.3523 105.923 43.0249 106.551 43.06 107.217C43.0992 107.885 43.4874 108.479 44.0922 108.764C44.3596 108.891 50.7525 111.91 56.6547 111.91C62.0661 111.91 64.6287 109.416 65.8466 106.89C68.2958 109.011 71.3667 110.385 74.761 110.722C75.0006 111.698 75.4779 112.62 76.2333 113.397C78.4388 115.638 82.3238 115.69 84.5995 113.47C86.9218 111.184 86.9542 107.432 84.6724 105.111C83.5457 103.974 82.0525 103.339 80.4593 103.339C78.8985 103.339 77.4295 103.944 76.3136 105.035C75.7014 105.64 75.2598 106.343 74.9682 107.099C69.4427 106.479 65.0216 102.293 64.0894 96.8728H100.297C100.359 97.3218 100.373 97.7626 100.395 98.2115C97.9012 98.7172 95.6053 99.9573 93.7543 101.834C91.1464 104.493 89.7294 108.036 89.7578 111.837L89.8024 116.109C89.8091 116.714 90.1156 117.284 90.6367 117.619C91.1498 117.962 91.7959 117.998 92.3602 117.761C92.4628 117.719 103.087 113.204 109.484 117.521C110.318 118.082 111.449 117.872 112.002 117.021C112.569 116.187 112.356 115.064 111.509 114.502C105.578 110.484 97.4793 112.231 93.4174 113.514L93.4032 111.812C93.3782 108.987 94.4233 106.358 96.3526 104.401C98.1098 102.615 100.423 101.617 102.867 101.594C102.895 101.594 102.927 101.594 102.943 101.594C108.178 101.594 112.454 106.085 112.502 111.656L112.596 122.825C112.596 123.365 112.326 123.938 111.769 124.492C110.916 125.358 109.526 126.088 107.846 126.584C108.889 126.179 109.793 125.615 110.504 124.948C111.379 124.089 111.842 123.125 111.827 122.148C111.79 117.846 103.803 117.712 102.181 117.697C97.5036 117.748 90.7164 120.291 90.7454 124.167C90.79 128.081 95.7072 131 102.228 131C102.287 131 102.346 131 102.408 131C107.497 130.957 111.961 129.476 114.364 127.027C115.6 125.774 116.249 124.3 116.235 122.763L116.142 111.604C116.078 104.427 110.747 98.6226 104.033 98.0387C104.015 97.6418 104.012 97.234 103.971 96.8512H129.614C130.605 96.8512 131.422 96.0303 131.422 95.0285ZM9.34739 21.9265C9.78821 22.713 10.358 24.8638 10.3337 27.7396C10.3195 29.2241 10.0346 30.6512 9.64982 31.8765C9.57151 31.5268 9.3791 31.196 9.08747 30.9509C8.57442 30.502 8.01208 29.299 7.93715 27.2522C7.79876 24.2049 8.88428 22.449 9.34739 21.9265ZM6.67341 33.6776C7.02309 33.9834 7.44974 34.1332 7.87706 34.1332C8.21123 34.1332 8.55349 34.0441 8.84512 33.8558C8.34692 34.8272 7.85546 35.4469 7.55708 35.5543C6.27173 35.5401 4.4632 32.7061 4.33561 28.2243C4.56648 30.6303 5.38131 32.5421 6.67341 33.6776ZM22.4513 51.7622C21.8532 51.7622 21.2908 51.5381 20.8601 51.1141C19.9704 50.2385 19.9562 48.7865 20.821 47.896C21.2483 47.4687 21.8248 47.2196 22.4378 47.2196C23.0359 47.2196 23.5908 47.4437 24.0357 47.8744C24.4596 48.2943 24.7162 48.8641 24.7229 49.4689C24.7229 50.0738 24.4954 50.6436 24.0641 51.075C23.6367 51.5239 23.0636 51.7622 22.4513 51.7622ZM34.5656 73.4693C34.0356 74.4569 32.6753 75.6052 29.5173 77.3834C27.7979 78.3535 26.3884 79.5564 25.0139 81.2779C23.8251 77.8391 22.6964 72.9191 24.0566 69.8023C24.6615 68.4197 25.7153 67.5185 27.2531 67.0311L27.3807 67.0237C27.4914 67.0237 27.9039 67.0696 28.2104 67.2552C24.4516 69.9913 24.6473 73.8088 24.6615 74.0012C24.7358 75.0031 25.6188 75.8023 26.6192 75.6748C27.6123 75.5985 28.367 74.7209 28.2927 73.717C28.2927 73.6887 28.1105 70.8547 32.0057 69.2811C32.0624 69.2595 32.0948 69.2082 32.1441 69.1906C32.9312 69.084 33.9566 69.3614 34.5649 71.0896V73.4693H34.5656ZM78.8506 107.608C79.712 106.775 81.2052 106.782 82.0599 107.645C82.9301 108.535 82.9159 109.982 82.0295 110.849C81.6042 111.27 81.0419 111.506 80.433 111.506C79.8207 111.506 79.2496 111.272 78.8182 110.82C77.9426 109.927 77.9588 108.49 78.8506 107.608ZM38.2116 30.4129C41.8753 31.549 45.3992 33.7592 48.3506 37.0448C51.2487 40.5876 52.9891 45.1086 52.9891 50.0279C52.9891 58.4542 46.453 65.2968 38.1941 65.9557V30.4129H38.2116ZM38.2116 74.1066C38.5424 73.0386 38.5924 71.8511 38.2116 70.4773V69.6639C46.8621 69.1103 53.997 62.955 56.0364 54.7811C56.0647 54.9594 56.1005 55.1268 56.118 55.2976V69.2669C55.9547 70.5482 55.7299 71.7161 55.4848 72.8462C48.4998 74.5123 43.9289 77.4387 41.1023 80.1444C40.006 81.1908 39.048 82.3175 38.2116 83.4975V74.1066ZM43.6257 82.7799C45.8265 80.6724 49.2863 78.4297 54.3912 76.9203C52.8885 81.3062 50.8207 84.3036 48.9015 86.3113C46.0041 89.3444 42.2945 91.1603 38.535 91.5802C39.2472 88.3675 41.0132 85.2791 43.6257 82.7799ZM56.6271 108.243C53.8545 108.243 50.839 107.415 48.6632 106.661C50.3833 105.286 51.5822 103.875 52.5401 102.163C54.7476 98.225 55.9398 96.8209 57.5526 96.8512H57.7882C58.0157 96.8722 58.2688 96.9241 58.5213 96.9937C59.4901 97.2624 60.1159 97.6897 60.4082 98.277C60.6498 98.7685 60.6363 99.3517 60.5715 99.8364C59.0553 103.391 56.4637 103.397 56.1788 103.405C55.1925 103.285 54.3237 104.091 54.2596 105.085C54.1853 106.08 54.9326 106.967 55.9331 107.036C56.1255 107.074 59.9383 107.259 62.669 103.489C62.8648 103.825 62.9329 104.258 62.9005 104.4C62.3942 106.048 61.1838 108.243 56.6271 108.243ZM60.2866 93.2058H57.6491C57.6066 93.2058 57.5674 93.1829 57.5317 93.1829C57.4709 93.1829 57.425 93.2058 57.375 93.2058H45.7198C47.8133 92.1149 49.7845 90.6642 51.5437 88.834C54.0503 86.2208 56.7337 82.0981 58.4498 75.9772C60.1908 75.664 62.0527 75.4378 64.1177 75.2913H71.6907C72.8762 75.3683 74.0386 75.4999 75.1437 75.6565C67.0543 77.6683 60.9489 84.6742 60.2866 93.2058ZM64.011 93.2058C64.7941 85.0806 71.5793 78.6903 79.901 78.6903C84.8223 78.6903 89.3433 80.4361 92.8753 83.3234C96.0988 86.2066 98.2773 89.6299 99.4485 93.2058H64.011ZM94.3699 124.203C94.4712 123.889 95.0909 123.375 96.0434 122.894C95.664 123.549 95.7228 124.404 96.2622 125.009C97.403 126.303 99.3419 127.114 101.762 127.344C97.3126 127.218 94.3841 125.379 94.3699 124.203ZM98.9854 122.595C98.7363 122.31 98.4231 122.125 98.0882 122.04C99.3095 121.643 100.735 121.357 102.193 121.336C104.938 121.388 107.13 121.868 107.95 122.306C107.337 122.89 105.616 123.895 102.677 123.75C100.632 123.671 99.4323 123.101 98.9854 122.595Z" fill="#C18F7C"/>
</svg>
