<svg width="132" height="131" viewBox="0 0 132 131" fill="none" xmlns="http://www.w3.org/2000/svg">
<path d="M0.57785 95.0285C0.57785 94.0267 1.39642 93.2058 2.40442 93.2058H28.7739C30.0119 88.402 32.6855 84.1652 36.3312 80.9863C36.4117 80.9093 36.5023 80.8364 36.5794 80.7601C36.7073 80.6616 36.8325 80.5448 36.9596 80.4394C39.2212 78.4439 41.9062 76.7103 45.008 75.2913H23.9876C22.9871 75.2913 22.1611 74.4778 22.1611 73.4686C22.1611 72.4735 22.9871 71.6459 23.9876 71.6459H60.3694C60.6759 71.6317 60.9614 71.5872 61.2685 71.573C62.3746 71.5143 63.4516 71.4967 64.4799 71.4967C65.7801 71.4967 66.9836 71.573 68.1831 71.6466H72.3706V69.2116C72.0074 66.2014 71.8497 62.8692 72.0209 59.103C72.0852 57.686 72.2063 56.3331 72.3706 55.0161V23.3745C72.3706 22.3714 73.1912 21.5525 74.1972 21.5525C75.2032 21.5525 76.0238 22.3714 76.0238 23.3745V42.2639C77.4005 39.4015 79.0633 36.9166 80.9467 34.7955C81.0252 34.7023 81.1104 34.6031 81.1821 34.5173C81.2822 34.4107 81.3959 34.2898 81.5035 34.1683C84.729 30.473 89.0526 27.7889 93.9688 26.5926V1.82271C93.9688 0.818863 94.7894 0 95.7953 0C96.8013 0 97.6219 0.818863 97.6219 1.82271V25.9803C97.9284 25.9445 98.2422 25.9378 98.5561 25.9236C99.1413 19.2059 104.957 13.8728 112.142 13.8195L123.329 13.7263C123.35 13.7263 123.372 13.7263 123.386 13.7263C125.791 13.7263 127.946 15.3074 129.472 18.1697C130.792 20.6722 131.549 24.0111 131.577 27.5533C131.634 34.1602 128.688 39.1767 124.727 39.2091C124.713 39.2091 124.699 39.2091 124.692 39.2091C122.872 39.2091 121.167 37.7064 119.897 34.973C118.891 32.7871 118.277 30.1098 118.248 27.7673C118.227 25.742 118.484 23.6662 118.947 22.071C119.875 18.8313 121.488 18.1474 122.679 18.1339C122.693 18.1339 122.707 18.1339 122.715 18.1339C123.686 18.1339 124.638 18.597 125.491 19.4652C126.176 20.1632 126.739 21.0671 127.146 22.1216C126.904 21.2953 126.597 20.5331 126.233 19.8641C125.39 18.2696 124.349 17.365 123.385 17.365C123.378 17.365 123.378 17.365 123.371 17.365L112.176 17.4582C106.568 17.5074 102.051 21.83 102.087 27.0983C102.101 29.54 103.1 31.8542 104.905 33.6127C106.839 35.5131 109.436 36.5527 112.226 36.5527C112.268 36.5527 112.304 36.5527 112.333 36.5527L114.024 36.5385C112.736 32.48 111.013 24.3844 115.016 18.4465C115.579 17.6134 116.721 17.3994 117.548 17.955C118.387 18.5174 118.611 19.6495 118.048 20.4825C113.717 26.8903 118.255 37.5059 118.29 37.6126C118.529 38.1648 118.483 38.823 118.147 39.336C117.812 39.8491 117.241 40.1623 116.628 40.1623L112.354 40.1981C108.408 40.1623 104.987 38.8237 102.336 36.2111C100.445 34.3601 99.2036 32.0601 98.6901 29.5677C98.3261 29.5893 97.9764 29.5893 97.6124 29.6359V65.8672C102.928 64.8418 107.002 60.4342 107.602 54.9877C106.827 54.7028 106.111 54.2694 105.526 53.6639C104.412 52.5385 103.813 51.0507 103.827 49.4696C103.842 47.8926 104.476 46.4081 105.6 45.3044C106.717 44.2155 108.19 43.61 109.756 43.61C111.355 43.61 112.86 44.2364 113.984 45.3827C116.267 47.7036 116.231 51.4564 113.909 53.7415C113.161 54.4753 112.226 54.9377 111.234 55.1801C110.906 58.5973 109.522 61.6878 107.381 64.1512C109.257 65.0558 110.656 66.4438 111.491 68.3664C114.402 75.0145 109.472 85.4593 109.265 85.9042C108.979 86.5023 108.395 86.8993 107.717 86.9344C107.039 86.9931 106.425 86.6353 106.061 86.0676C104.049 82.8049 102.537 81.5182 100.881 80.5853C99.7326 79.9358 98.6123 79.277 97.6138 78.5614V94.0402C97.6212 94.2805 97.6564 94.5175 97.6564 94.7572C97.6564 94.8301 97.6205 94.8854 97.6138 94.9583V95.0488C97.6138 96.0445 96.7932 96.8715 95.7872 96.8715H80.5469C81.3316 97.932 82.0596 99.1357 82.7692 100.398C83.7082 102.048 84.9848 103.557 88.2672 105.567C88.8341 105.923 89.1622 106.551 89.127 107.217C89.0878 107.885 88.6988 108.479 88.0926 108.764C87.8247 108.891 81.4182 111.91 75.5035 111.91C70.0807 111.91 67.5127 109.416 66.2922 106.89C63.8379 109.011 60.7605 110.385 57.359 110.722C57.1188 111.698 56.6405 112.62 55.8835 113.397C53.6734 115.638 49.7801 115.69 47.4996 113.47C45.1724 111.184 45.1399 107.432 47.4265 105.111C48.5556 103.974 50.052 103.339 51.6486 103.339C53.2127 103.339 54.6848 103.944 55.803 105.035C56.4166 105.64 56.8591 106.343 57.1513 107.099C62.6885 106.479 67.1189 102.293 68.0532 96.8728H31.7688C31.7066 97.3218 31.6924 97.7626 31.6707 98.2115C34.1697 98.7172 36.4705 99.9573 38.3255 101.834C40.9388 104.493 42.3588 108.036 42.3304 111.837L42.2858 116.109C42.279 116.714 41.9719 117.284 41.4496 117.619C40.9355 117.962 40.288 117.998 39.7225 117.761C39.6197 117.719 28.9735 113.204 22.5629 117.521C21.7268 118.082 20.5936 117.872 20.0396 117.021C19.4706 116.187 19.6844 115.064 20.5334 114.502C26.4765 110.484 34.5925 112.231 38.6631 113.514L38.6773 111.812C38.7023 108.987 37.6551 106.358 35.7216 104.401C33.9607 102.615 31.6423 101.617 29.1934 101.594C29.1649 101.594 29.1331 101.594 29.1169 101.594C23.8713 101.594 19.5863 106.085 19.5383 111.656L19.4436 122.825C19.4436 123.365 19.7148 123.938 20.273 124.492C21.1274 125.358 22.5203 126.088 24.2041 126.584C23.1589 126.179 22.2531 125.615 21.5407 124.948C20.6633 124.089 20.1999 123.125 20.2141 122.148C20.2513 117.846 28.255 117.712 29.8807 117.697C34.5682 117.748 41.3698 120.291 41.3407 124.167C41.296 128.081 36.3684 131 29.8333 131C29.7745 131 29.7156 131 29.6534 131C24.5532 130.957 20.0802 129.476 17.6718 127.027C16.4338 125.774 15.783 124.3 15.7972 122.763L15.8899 111.604C15.9541 104.427 21.2965 98.6226 28.025 98.0387C28.0426 97.6418 28.046 97.234 28.0873 96.8512H2.39021C1.39642 96.8512 0.57785 96.0303 0.57785 95.0285ZM122.911 21.9265C122.469 22.713 121.898 24.8638 121.923 27.7396C121.937 29.2241 122.222 30.6512 122.608 31.8765C122.686 31.5268 122.879 31.196 123.171 30.9509C123.686 30.502 124.249 29.299 124.324 27.2522C124.463 24.2049 123.375 22.449 122.911 21.9265ZM125.591 33.6776C125.24 33.9834 124.813 34.1332 124.384 34.1332C124.05 34.1332 123.707 34.0441 123.414 33.8558C123.914 34.8272 124.406 35.4469 124.705 35.5543C125.993 35.5401 127.806 32.7061 127.933 28.2243C127.702 30.6303 126.885 32.5421 125.591 33.6776ZM109.779 51.7622C110.379 51.7622 110.942 51.5381 111.374 51.1141C112.266 50.2385 112.28 48.7865 111.413 47.896C110.985 47.4687 110.407 47.2196 109.793 47.2196C109.194 47.2196 108.637 47.4437 108.192 47.8744C107.767 48.2943 107.51 48.8641 107.503 49.4689C107.503 50.0738 107.731 50.6436 108.163 51.075C108.591 51.5239 109.166 51.7622 109.779 51.7622ZM97.6395 73.4693C98.1705 74.4569 99.5337 75.6052 102.698 77.3834C104.421 78.3535 105.834 79.5564 107.211 81.2779C108.403 77.8391 109.534 72.9191 108.171 69.8023C107.564 68.4197 106.508 67.5185 104.967 67.0311L104.84 67.0237C104.729 67.0237 104.315 67.0696 104.008 67.2552C107.775 69.9913 107.579 73.8088 107.564 74.0012C107.49 75.0031 106.605 75.8023 105.603 75.6748C104.607 75.5985 103.851 74.7209 103.926 73.717C103.926 73.6887 104.108 70.8547 100.205 69.2811C100.148 69.2595 100.115 69.2082 100.066 69.1906C99.2773 69.084 98.2497 69.3614 97.6402 71.0896V73.4693H97.6395ZM53.2607 107.608C52.3975 106.775 50.9011 106.782 50.0446 107.645C49.1726 108.535 49.1868 109.982 50.0751 110.849C50.5013 111.27 51.0648 111.506 51.675 111.506C52.2886 111.506 52.8609 111.272 53.2932 110.82C54.1706 109.927 54.1544 108.49 53.2607 107.608ZM93.9857 30.4129C90.3143 31.549 86.7829 33.7592 83.8252 37.0448C80.921 40.5876 79.177 45.1086 79.177 50.0279C79.177 58.4542 85.7269 65.2968 94.0033 65.9557V30.4129H93.9857ZM93.9857 74.1066C93.6542 73.0386 93.6041 71.8511 93.9857 70.4773V69.6639C85.3169 69.1103 78.1669 62.955 76.1232 54.7811C76.0948 54.9594 76.059 55.1268 76.0414 55.2976V69.2669C76.2051 70.5482 76.4304 71.7161 76.6759 72.8462C83.6757 74.5123 88.2563 77.4387 91.0889 80.1444C92.1875 81.1908 93.1475 82.3175 93.9857 83.4975V74.1066ZM88.5601 82.7799C86.3547 80.6724 82.8876 78.4297 77.7719 76.9203C79.2778 81.3062 81.3499 84.3036 83.2732 86.3113C86.1768 89.3444 89.8942 91.1603 93.6616 91.5802C92.9479 88.3675 91.1782 85.2791 88.5601 82.7799ZM75.5313 108.243C78.3097 108.243 81.3316 107.415 83.512 106.661C81.7883 105.286 80.5868 103.875 79.6268 102.163C77.4147 98.225 76.22 96.8209 74.6038 96.8512H74.3677C74.1397 96.8722 73.886 96.9241 73.633 96.9937C72.6622 97.2624 72.0351 97.6897 71.7422 98.277C71.5 98.7685 71.5135 99.3517 71.5785 99.8364C73.0979 103.391 75.695 103.397 75.9805 103.405C76.9688 103.285 77.8395 104.091 77.9038 105.085C77.9782 106.08 77.2293 106.967 76.2267 107.036C76.0339 107.074 72.213 107.259 69.4766 103.489C69.2804 103.825 69.212 104.258 69.2445 104.4C69.7519 106.048 70.9649 108.243 75.5313 108.243ZM71.8639 93.2058H74.507C74.5497 93.2058 74.5889 93.1829 74.6248 93.1829C74.6856 93.1829 74.7316 93.2058 74.7817 93.2058H86.4616C84.3637 92.1149 82.3883 90.6642 80.6254 88.834C78.1135 86.2208 75.4244 82.0981 73.7047 75.9772C71.96 75.664 70.0942 75.4378 68.0248 75.2913H60.4357C59.2478 75.3683 58.0828 75.4999 56.9754 75.6565C65.082 77.6683 71.2003 84.6742 71.8639 93.2058ZM68.1317 93.2058C67.3469 85.0806 60.5474 78.6903 52.2081 78.6903C47.2763 78.6903 42.7458 80.4361 39.2063 83.3234C35.976 86.2066 33.7929 89.6299 32.6192 93.2058H68.1317ZM37.7085 124.203C37.6071 123.889 36.986 123.375 36.0315 122.894C36.4117 123.549 36.3528 124.404 35.8123 125.009C34.669 126.303 32.7261 127.114 30.3008 127.344C34.7596 127.218 37.6943 125.379 37.7085 124.203ZM33.0833 122.595C33.3329 122.31 33.6468 122.125 33.9823 122.04C32.7585 121.643 31.3298 121.357 29.8685 121.336C27.1178 121.388 24.9219 121.868 24.0999 122.306C24.7135 122.89 26.4386 123.895 29.3835 123.75C31.4333 123.671 32.6354 123.101 33.0833 122.595Z" fill="#C18F7C"/>
</svg>
