<svg width="132" height="131" viewBox="0 0 132 131" fill="none" xmlns="http://www.w3.org/2000/svg">
<path d="M131.422 95.0285C131.422 94.0267 130.605 93.2058 129.599 93.2058H103.286C102.05 88.402 99.3823 84.1652 95.7443 80.9863C95.664 80.9093 95.5735 80.8364 95.4966 80.7601C95.369 80.6616 95.2441 80.5448 95.1172 80.4394C92.8604 78.4439 90.181 76.7103 87.0858 75.2913H108.062C109.06 75.2913 109.884 74.4778 109.884 73.4686C109.884 72.4735 109.06 71.6459 108.062 71.6459H71.7568C71.451 71.6317 71.1661 71.5872 70.8596 71.573C69.7559 71.5143 68.6812 71.4967 67.655 71.4967C66.3575 71.4967 65.1566 71.573 63.9597 71.6466H59.781V69.2116C60.1435 66.2014 60.3008 62.8692 60.13 59.103C60.0658 57.686 59.945 56.3331 59.781 55.0161V23.3745C59.781 22.3714 58.9621 21.5525 57.9582 21.5525C56.9544 21.5525 56.1355 22.3714 56.1355 23.3745V42.2639C54.7618 39.4015 53.1024 36.9166 51.223 34.7955C51.1447 34.7023 51.0596 34.6031 50.9881 34.5173C50.8882 34.4107 50.7748 34.2898 50.6674 34.1683C47.4486 30.473 43.1342 27.7889 38.2285 26.5926V1.8227C38.2285 0.818865 37.4096 -1.15567e-06 36.4058 -1.15567e-06C35.4019 -1.15567e-06 34.583 0.818865 34.583 1.8227V25.9803C34.2772 25.9446 33.964 25.9378 33.6508 25.9236C33.0668 19.2059 27.2639 13.8728 20.0939 13.8195L8.93012 13.7263C8.90919 13.7263 8.88759 13.7263 8.87341 13.7263C6.47352 13.7263 4.3234 15.3074 2.79975 18.1697C1.48268 20.6722 0.727947 24.0111 0.699593 27.5533C0.642887 34.1602 3.58285 39.1767 7.53475 39.2091C7.54892 39.2091 7.56309 39.2091 7.57052 39.2091C9.3858 39.2091 11.0877 37.7064 12.3555 34.973C13.3593 32.7871 13.9716 30.1098 14.0006 27.7673C14.0215 25.742 13.765 23.6662 13.3026 22.071C12.3771 18.8313 10.7677 18.1474 9.57888 18.1339C9.5647 18.1339 9.55052 18.1339 9.54309 18.1339C8.57436 18.1339 7.62385 18.597 6.77325 19.4652C6.0894 20.1632 5.52706 21.0671 5.12134 22.1216C5.36302 21.2953 5.6695 20.5331 6.0327 19.8641C6.87317 18.2696 7.91278 17.365 8.87409 17.365C8.88084 17.365 8.88084 17.365 8.88827 17.365L20.0594 17.4582C25.6558 17.5074 30.1633 21.83 30.1275 27.0983C30.1134 29.54 29.1163 31.8542 27.3152 33.6127C25.3858 35.5131 22.7942 36.5527 20.0102 36.5527C19.9676 36.5527 19.9318 36.5527 19.9035 36.5527L18.2158 36.5385C19.5011 32.48 21.2206 24.3844 17.2261 18.4465C16.6638 17.6134 15.5243 17.3994 14.6987 17.955C13.8622 18.5174 13.6381 19.6495 14.2004 20.4825C18.5223 26.8903 13.9939 37.5059 13.9588 37.6126C13.7198 38.1648 13.7664 38.823 14.1012 39.336C14.4354 39.8491 15.0051 40.1623 15.6174 40.1623L19.8819 40.1981C23.8196 40.1623 27.2335 38.8237 29.8791 36.2111C31.7659 34.3601 33.0047 32.0601 33.5171 29.5677C33.8803 29.5893 34.2293 29.5893 34.5925 29.6359V65.8672C29.2884 64.8418 25.2224 60.4342 24.6243 54.9877C25.3973 54.7028 26.1122 54.2694 26.6961 53.6639C27.8073 52.5385 28.4047 51.0507 28.3906 49.4696C28.3764 47.8926 27.7432 46.4082 26.6219 45.3044C25.5073 44.2155 24.037 43.61 22.4742 43.61C20.879 43.61 19.3769 44.2364 18.2556 45.3827C15.9773 47.7036 16.013 51.4564 18.3299 53.7415C19.0772 54.4753 20.0102 54.9377 20.9998 55.1801C21.3272 58.5973 22.7084 61.6878 24.8444 64.1512C22.9724 65.0558 21.5763 66.4438 20.7433 68.3664C17.8384 75.0145 22.7584 85.4593 22.965 85.9042C23.2499 86.5023 23.8331 86.8993 24.5095 86.9344C25.186 86.9931 25.7983 86.6353 26.1615 86.0676C28.1698 82.8049 29.6786 81.5182 31.3305 80.5853C32.4768 79.9358 33.5947 79.277 34.5911 78.5614V94.0402C34.5837 94.2805 34.5486 94.5175 34.5486 94.7572C34.5486 94.8301 34.5844 94.8854 34.5911 94.9583V95.0488C34.5911 96.0445 35.41 96.8715 36.4138 96.8715H51.622C50.8389 97.932 50.1125 99.1357 49.4044 100.398C48.4673 102.048 47.1935 103.557 43.918 105.567C43.3523 105.923 43.0249 106.551 43.06 107.217C43.0991 107.885 43.4873 108.479 44.0922 108.764C44.3595 108.891 50.7525 111.91 56.6547 111.91C62.0661 111.91 64.6287 109.416 65.8465 106.89C68.2957 109.011 71.3666 110.385 74.7609 110.722C75.0006 111.698 75.4778 112.62 76.2332 113.397C78.4387 115.638 82.3238 115.69 84.5995 113.47C86.9217 111.184 86.9541 107.432 84.6724 105.111C83.5457 103.974 82.0524 103.339 80.4592 103.339C78.8985 103.339 77.4295 103.944 76.3136 105.035C75.7013 105.64 75.2598 106.343 74.9682 107.099C69.4427 106.479 65.0216 102.293 64.0893 96.8728H100.297C100.359 97.3218 100.373 97.7626 100.395 98.2115C97.9012 98.7172 95.6053 99.9573 93.7542 101.834C91.1464 104.493 89.7294 108.036 89.7577 111.837L89.8023 116.109C89.809 116.714 90.1155 117.284 90.6367 117.619C91.1497 117.962 91.7958 117.998 92.3602 117.761C92.4628 117.719 103.086 113.204 109.483 117.521C110.318 118.082 111.449 117.872 112.002 117.021C112.569 116.187 112.356 115.064 111.509 114.502C105.578 110.484 97.4793 112.231 93.4173 113.514L93.4032 111.812C93.3782 108.987 94.4232 106.358 96.3526 104.401C98.1098 102.615 100.423 101.617 102.867 101.594C102.895 101.594 102.927 101.594 102.943 101.594C108.178 101.594 112.454 106.085 112.502 111.656L112.596 122.825C112.596 123.365 112.326 123.938 111.769 124.492C110.916 125.358 109.526 126.088 107.846 126.584C108.889 126.179 109.793 125.615 110.504 124.948C111.379 124.089 111.842 123.125 111.827 122.148C111.79 117.846 103.803 117.712 102.181 117.697C97.5036 117.748 90.7163 120.291 90.7454 124.167C90.7899 128.081 95.7072 131 102.228 131C102.287 131 102.346 131 102.408 131C107.497 130.957 111.961 129.476 114.364 127.027C115.6 125.774 116.249 124.3 116.235 122.763L116.142 111.604C116.078 104.427 110.747 98.6226 104.033 98.0387C104.015 97.6418 104.012 97.234 103.971 96.8512H129.614C130.605 96.8512 131.422 96.0303 131.422 95.0285ZM9.34732 21.9265C9.78815 22.713 10.3579 24.8638 10.3336 27.7396C10.3194 29.2241 10.0346 30.6512 9.64976 31.8765C9.57145 31.5268 9.37905 31.196 9.08741 30.9509C8.57436 30.502 8.01202 29.299 7.93709 27.2522C7.7987 24.2049 8.88422 22.449 9.34732 21.9265ZM6.67335 33.6776C7.02304 33.9834 7.44968 34.1332 7.877 34.1332C8.21116 34.1332 8.55343 34.0441 8.84507 33.8558C8.34686 34.8272 7.8554 35.4469 7.55702 35.5543C6.27167 35.5401 4.46314 32.7061 4.33555 28.2243C4.56642 30.6303 5.38125 32.5421 6.67335 33.6776ZM22.4512 51.7622C21.8531 51.7622 21.2908 51.5381 20.8601 51.1141C19.9703 50.2385 19.9562 48.7865 20.8209 47.896C21.2483 47.4687 21.8248 47.2196 22.4377 47.2196C23.0358 47.2196 23.5908 47.4437 24.0356 47.8744C24.4596 48.2943 24.7161 48.8641 24.7229 49.4689C24.7229 50.0738 24.4954 50.6436 24.064 51.075C23.6367 51.5239 23.0635 51.7622 22.4512 51.7622ZM34.5655 73.4693C34.0356 74.4569 32.6753 75.6052 29.5173 77.3834C27.7978 78.3535 26.3883 79.5564 25.0138 81.2779C23.825 77.8391 22.6963 72.9191 24.0566 69.8023C24.6614 68.4197 25.7152 67.5185 27.2531 67.0311L27.3806 67.0237C27.4914 67.0237 27.9038 67.0696 28.2103 67.2552C24.4515 69.9913 24.6473 73.8088 24.6614 74.0012C24.7357 75.0031 25.6187 75.8023 26.6192 75.6748C27.6122 75.5985 28.3669 74.7209 28.2927 73.717C28.2927 73.6887 28.1104 70.8547 32.0056 69.2811C32.0623 69.2595 32.0947 69.2082 32.144 69.1906C32.9311 69.084 33.9566 69.3614 34.5648 71.0896V73.4693H34.5655ZM78.8505 107.608C79.7119 106.775 81.2052 106.782 82.0598 107.645C82.93 108.535 82.9158 109.982 82.0295 110.849C81.6042 111.27 81.0418 111.506 80.4329 111.506C79.8206 111.506 79.2495 111.272 78.8181 110.82C77.9425 109.927 77.9587 108.49 78.8505 107.608ZM38.2116 30.4129C41.8752 31.549 45.3991 33.7592 48.3506 37.0448C51.2487 40.5876 52.989 45.1086 52.989 50.0279C52.989 58.4542 46.4529 65.2968 38.194 65.9557V30.4129H38.2116ZM38.2116 74.1066C38.5424 73.0386 38.5923 71.8511 38.2116 70.4773V69.6639C46.862 69.1103 53.9969 62.955 56.0363 54.7811C56.0647 54.9594 56.1004 55.1268 56.118 55.2976V69.2669C55.9546 70.5482 55.7298 71.7161 55.4848 72.8462C48.4997 74.5123 43.9288 77.4387 41.1023 80.1444C40.0059 81.1908 39.048 82.3175 38.2116 83.4975V74.1066V74.1066ZM43.6257 82.7799C45.8264 80.6724 49.2862 78.4297 54.3911 76.9203C52.8884 81.3062 50.8207 84.3036 48.9014 86.3113C46.004 89.3444 42.2944 91.1603 38.5349 91.5802C39.2471 88.3676 41.0131 85.2791 43.6257 82.7799ZM56.627 108.243C53.8545 108.243 50.8389 107.415 48.6631 106.661C50.3832 105.286 51.5821 103.875 52.5401 102.163C54.7476 98.225 55.9398 96.8209 57.5525 96.8512H57.7881C58.0156 96.8722 58.2688 96.9241 58.5213 96.9937C59.49 97.2624 60.1158 97.6897 60.4081 98.277C60.6498 98.7685 60.6363 99.3517 60.5715 99.8364C59.0552 103.391 56.4636 103.397 56.1787 103.405C55.1925 103.285 54.3236 104.091 54.2595 105.085C54.1852 106.08 54.9326 106.967 55.933 107.036C56.1254 107.074 59.9382 107.259 62.6689 103.489C62.8647 103.825 62.9329 104.258 62.9005 104.4C62.3942 106.048 61.1838 108.243 56.627 108.243ZM60.2866 93.2058H57.6491C57.6065 93.2058 57.5674 93.1829 57.5316 93.1829C57.4708 93.1829 57.4249 93.2058 57.375 93.2058H45.7198C47.8132 92.1149 49.7844 90.6642 51.5437 88.834C54.0502 86.2208 56.7337 82.0981 58.4497 75.9772C60.1907 75.664 62.0526 75.4378 64.1176 75.2913H71.6907C72.8761 75.3683 74.0386 75.4999 75.1437 75.6565C67.0542 77.6683 60.9488 84.6742 60.2866 93.2058ZM64.011 93.2058C64.7941 85.0806 71.5793 78.6903 79.9009 78.6903C84.8222 78.6903 89.3432 80.4361 92.8752 83.3234C96.0987 86.2066 98.2772 89.6299 99.4485 93.2058H64.011ZM94.3699 124.203C94.4711 123.889 95.0908 123.375 96.0434 122.894C95.664 123.549 95.7227 124.404 96.2621 125.009C97.403 126.303 99.3418 127.114 101.762 127.344C97.3125 127.218 94.384 125.379 94.3699 124.203ZM98.9854 122.595C98.7363 122.31 98.423 122.125 98.0882 122.04C99.3094 121.643 100.735 121.357 102.193 121.336C104.938 121.388 107.129 121.868 107.95 122.306C107.337 122.89 105.616 123.895 102.677 123.75C100.632 123.671 99.4323 123.101 98.9854 122.595Z" fill="#E8D3C3"/>
</svg>
