<svg width="132" height="131" viewBox="0 0 132 131" fill="none" xmlns="http://www.w3.org/2000/svg">
<path d="M0.57785 35.9715C0.57785 36.9733 1.39642 37.7942 2.40442 37.7942H28.7739C30.0119 42.598 32.6855 46.8348 36.3312 50.0137C36.4117 50.0907 36.5023 50.1636 36.5794 50.2399C36.7073 50.3384 36.8325 50.4552 36.9596 50.5606C39.2212 52.5561 41.9062 54.2897 45.008 55.7087H23.9876C22.9871 55.7087 22.1611 56.5222 22.1611 57.5314C22.1611 58.5265 22.9871 59.3541 23.9876 59.3541H60.3694C60.6759 59.3683 60.9614 59.4128 61.2685 59.427C62.3746 59.4857 63.4516 59.5033 64.4799 59.5033C65.7801 59.5033 66.9836 59.427 68.1831 59.3534H72.3706V61.7884C72.0074 64.7986 71.8497 68.1308 72.0209 71.897C72.0852 73.314 72.2063 74.6669 72.3706 75.9839V107.625C72.3706 108.629 73.1912 109.448 74.1972 109.448C75.2032 109.448 76.0238 108.629 76.0238 107.625V88.7361C77.4005 91.5985 79.0633 94.0834 80.9467 96.2045C81.0252 96.2977 81.1104 96.3969 81.1821 96.4827C81.2822 96.5893 81.3959 96.7102 81.5035 96.8317C84.729 100.527 89.0526 103.211 93.9688 104.407V129.177C93.9688 130.181 94.7894 131 95.7953 131C96.8013 131 97.6219 130.181 97.6219 129.177V105.02C97.9284 105.055 98.2422 105.062 98.5561 105.076C99.1413 111.794 104.957 117.127 112.142 117.18L123.329 117.274C123.35 117.274 123.372 117.274 123.386 117.274C125.791 117.274 127.946 115.693 129.472 112.83C130.792 110.328 131.549 106.989 131.577 103.447C131.634 96.8398 128.688 91.8233 124.727 91.7909C124.713 91.7909 124.699 91.7909 124.692 91.7909C122.872 91.7909 121.167 93.2936 119.897 96.027C118.891 98.2129 118.277 100.89 118.248 103.233C118.227 105.258 118.484 107.334 118.947 108.929C119.875 112.169 121.488 112.853 122.679 112.866C122.693 112.866 122.707 112.866 122.715 112.866C123.686 112.866 124.638 112.403 125.491 111.535C126.176 110.837 126.739 109.933 127.146 108.878C126.904 109.705 126.597 110.467 126.233 111.136C125.39 112.73 124.349 113.635 123.385 113.635C123.378 113.635 123.378 113.635 123.371 113.635L112.176 113.542C106.568 113.493 102.051 109.17 102.087 103.902C102.101 101.46 103.1 99.1458 104.905 97.3873C106.839 95.4869 109.436 94.4473 112.226 94.4473C112.268 94.4473 112.304 94.4473 112.333 94.4473L114.024 94.4615C112.736 98.52 111.013 106.616 115.016 112.554C115.579 113.387 116.721 113.601 117.548 113.045C118.387 112.483 118.611 111.351 118.048 110.517C113.717 104.11 118.255 93.4941 118.29 93.3874C118.529 92.8352 118.483 92.177 118.147 91.664C117.812 91.1509 117.241 90.8377 116.628 90.8377L112.354 90.8019C108.408 90.8377 104.987 92.1763 102.336 94.7889C100.445 96.6399 99.2036 98.9399 98.6901 101.432C98.3261 101.411 97.9764 101.411 97.6124 101.364V65.1328C102.928 66.1582 107.002 70.5658 107.602 76.0123C106.827 76.2972 106.111 76.7306 105.526 77.3361C104.412 78.4615 103.813 79.9493 103.827 81.5304C103.842 83.1074 104.476 84.5919 105.6 85.6956C106.717 86.7845 108.19 87.39 109.756 87.39C111.355 87.39 112.86 86.7636 113.984 85.6173C116.267 83.2964 116.231 79.5436 113.909 77.2585C113.161 76.5247 112.226 76.0623 111.234 75.8199C110.906 72.4027 109.522 69.3122 107.381 66.8488C109.257 65.9442 110.656 64.5562 111.491 62.6336C114.402 55.9855 109.472 45.5407 109.265 45.0958C108.979 44.4977 108.395 44.1007 107.717 44.0656C107.039 44.0069 106.425 44.3647 106.061 44.9324C104.049 48.1951 102.537 49.4818 100.881 50.4147C99.7326 51.0642 98.6123 51.723 97.6138 52.4386V36.9598C97.6212 36.7195 97.6564 36.4825 97.6564 36.2428C97.6564 36.1699 97.6205 36.1146 97.6138 36.0417V35.9512C97.6138 34.9555 96.7932 34.1285 95.7872 34.1285H80.5469C81.3316 33.068 82.0596 31.8643 82.7692 30.6019C83.7082 28.952 84.9848 27.4425 88.2672 25.4328C88.8341 25.0771 89.1622 24.4486 89.127 23.783C89.0878 23.1153 88.6988 22.5206 88.0926 22.2357C87.8247 22.1094 81.4182 19.0905 75.5035 19.0905C70.0807 19.0905 67.5127 21.5842 66.2922 24.1104C63.8379 21.9886 60.7605 20.6148 57.359 20.278C57.1188 19.3025 56.6405 18.3803 55.8835 17.6026C53.6734 15.362 49.7801 15.3101 47.4996 17.5297C45.1724 19.8155 45.1399 23.5676 47.4265 25.8885C48.5556 27.026 50.052 27.6613 51.6486 27.6613C53.2127 27.6613 54.6848 27.0564 55.803 25.9648C56.4166 25.3599 56.8591 24.6565 57.1513 23.9011C62.6885 24.5208 67.1189 28.707 68.0532 34.1272H31.7688C31.7066 33.6782 31.6924 33.2374 31.6707 32.7885C34.1697 32.2828 36.4705 31.0427 38.3255 29.166C40.9388 26.5069 42.3588 22.9641 42.3304 19.1627L42.2858 14.8908C42.279 14.286 41.9719 13.7162 41.4496 13.3814C40.9355 13.0378 40.288 13.002 39.7225 13.2389C39.6197 13.2815 28.9735 17.7957 22.5629 13.4793C21.7268 12.9183 20.5936 13.1282 20.0396 13.9795C19.4706 14.8125 19.6844 15.9359 20.5334 16.4982C26.4765 20.5156 34.5925 18.7692 38.6631 17.4858L38.6773 19.1877C38.7023 22.0129 37.6551 24.6417 35.7216 26.5994C33.9607 28.385 31.6423 29.3834 29.1934 29.4063C29.1649 29.4063 29.1331 29.4063 29.1169 29.4063C23.8713 29.4063 19.5863 24.9151 19.5383 19.3436L19.4436 8.17451C19.4436 7.63512 19.7148 7.06198 20.273 6.50842C21.1274 5.64162 22.5203 4.91186 24.2041 4.41635C23.1589 4.82072 22.2531 5.38509 21.5407 6.05206C20.6633 6.91144 20.1999 7.87477 20.2141 8.85161C20.2513 13.1539 28.255 13.2875 29.8807 13.3031C34.5682 13.2518 41.3698 10.7094 41.3407 6.83313C41.296 2.91903 36.3684 0 29.8333 0C29.7745 0 29.7156 0 29.6534 0C24.5532 0.0425298 20.0802 1.52365 17.6718 3.97283C16.4338 5.22577 15.783 6.70014 15.7972 8.23729L15.8899 19.3963C15.9541 26.573 21.2965 32.3774 28.025 32.9613C28.0426 33.3582 28.046 33.766 28.0873 34.1488H2.39021C1.39642 34.1488 0.57785 34.9697 0.57785 35.9715ZM122.911 109.074C122.469 108.287 121.898 106.136 121.923 103.26C121.937 101.776 122.222 100.349 122.608 99.1235C122.686 99.4732 122.879 99.804 123.171 100.049C123.686 100.498 124.249 101.701 124.324 103.748C124.463 106.795 123.375 108.551 122.911 109.074ZM125.591 97.3224C125.24 97.0166 124.813 96.8668 124.384 96.8668C124.05 96.8668 123.707 96.9559 123.414 97.1442C123.914 96.1728 124.406 95.5531 124.705 95.4457C125.993 95.4599 127.806 98.2939 127.933 102.776C127.702 100.37 126.885 98.4579 125.591 97.3224ZM109.779 79.2378C110.379 79.2378 110.942 79.4619 111.374 79.8859C112.266 80.7615 112.28 82.2135 111.413 83.104C110.985 83.5313 110.407 83.7804 109.793 83.7804C109.194 83.7804 108.637 83.5563 108.192 83.1256C107.767 82.7057 107.51 82.1359 107.503 81.5311C107.503 80.9262 107.731 80.3564 108.163 79.925C108.591 79.4761 109.166 79.2378 109.779 79.2378ZM97.6395 57.5307C98.1705 56.5431 99.5337 55.3948 102.698 53.6166C104.421 52.6465 105.834 51.4436 107.211 49.7221C108.403 53.1609 109.534 58.0809 108.171 61.1977C107.564 62.5803 106.508 63.4815 104.967 63.9689L104.84 63.9763C104.729 63.9763 104.315 63.9304 104.008 63.7448C107.775 61.0087 107.579 57.1912 107.564 56.9988C107.49 55.9969 106.605 55.1977 105.603 55.3252C104.607 55.4015 103.851 56.2791 103.926 57.283C103.926 57.3113 104.108 60.1453 100.205 61.7189C100.148 61.7405 100.115 61.7918 100.066 61.8094C99.2773 61.916 98.2497 61.6386 97.6402 59.9104V57.5307H97.6395ZM53.2607 23.3921C52.3975 24.2251 50.9011 24.2184 50.0446 23.355C49.1726 22.4652 49.1868 21.0178 50.0751 20.151C50.5013 19.7305 51.0648 19.4942 51.675 19.4942C52.2886 19.4942 52.8609 19.7278 53.2932 20.1801C54.1706 21.0732 54.1544 22.5098 53.2607 23.3921ZM93.9857 100.587C90.3143 99.451 86.7829 97.2408 83.8252 93.9552C80.921 90.4124 79.177 85.8914 79.177 80.9721C79.177 72.5458 85.7269 65.7032 94.0033 65.0443V100.587H93.9857ZM93.9857 56.8934C93.6542 57.9614 93.6041 59.1489 93.9857 60.5227V61.3361C85.3169 61.8897 78.1669 68.045 76.1232 76.2189C76.0948 76.0406 76.059 75.8732 76.0414 75.7024V61.7331C76.2051 60.4518 76.4304 59.2839 76.6759 58.1538C83.6757 56.4877 88.2563 53.5613 91.0889 50.8556C92.1875 49.8092 93.1475 48.6825 93.9857 47.5025V56.8934ZM88.5601 48.2201C86.3547 50.3276 82.8876 52.5703 77.7719 54.0797C79.2778 49.6938 81.3499 46.6964 83.2732 44.6887C86.1768 41.6556 89.8942 39.8397 93.6616 39.4198C92.9479 42.6325 91.1782 45.7209 88.5601 48.2201ZM75.5313 22.7568C78.3097 22.7568 81.3316 23.5852 83.512 24.3392C81.7883 25.7137 80.5868 27.1246 79.6268 28.8373C77.4147 32.775 76.22 34.1791 74.6038 34.1488H74.3677C74.1397 34.1278 73.886 34.0759 73.633 34.0063C72.6622 33.7376 72.0351 33.3103 71.7422 32.723C71.5 32.2315 71.5135 31.6483 71.5785 31.1636C73.0979 27.6093 75.695 27.6025 75.9805 27.5951C76.9688 27.7146 77.8395 26.9092 77.9038 25.9148C77.9782 24.9198 77.2293 24.0334 76.2267 23.9639C76.0339 23.9261 72.213 23.7411 69.4766 27.5114C69.2804 27.1752 69.212 26.7425 69.2445 26.6C69.7519 24.9515 70.9649 22.7568 75.5313 22.7568ZM71.8639 37.7942H74.507C74.5497 37.7942 74.5889 37.8171 74.6248 37.8171C74.6856 37.8171 74.7316 37.7942 74.7817 37.7942H86.4616C84.3637 38.8851 82.3883 40.3358 80.6254 42.166C78.1135 44.7792 75.4244 48.9019 73.7047 55.0228C71.96 55.336 70.0942 55.5622 68.0248 55.7087H60.4357C59.2478 55.6317 58.0828 55.5001 56.9754 55.3435C65.082 53.3317 71.2003 46.3258 71.8639 37.7942ZM68.1317 37.7942C67.3469 45.9194 60.5474 52.3097 52.2081 52.3097C47.2763 52.3097 42.7458 50.5639 39.2063 47.6766C35.976 44.7934 33.7929 41.3701 32.6192 37.7942H68.1317ZM37.7085 6.79735C37.6071 7.11058 36.986 7.62499 36.0315 8.10565C36.4117 7.45082 36.3528 6.59618 35.8123 5.99131C34.669 4.69718 32.7261 3.88574 30.3008 3.65622C34.7596 3.78246 37.6943 5.62069 37.7085 6.79735ZM33.0833 8.40471C33.3329 8.68959 33.6468 8.87456 33.9823 8.96029C32.7585 9.35724 31.3298 9.64347 29.8685 9.66372C27.1178 9.61242 24.9219 9.13176 24.0999 8.69364C24.7135 8.1097 26.4386 7.10451 29.3835 7.25032C31.4333 7.32931 32.6354 7.89907 33.0833 8.40471Z" fill="#C18F7C"/>
</svg>
