<svg width="132" height="131" viewBox="0 0 132 131" fill="none" xmlns="http://www.w3.org/2000/svg">
<path d="M131.422 35.9715C131.422 36.9733 130.604 37.7942 129.596 37.7942H103.226C101.988 42.598 99.3146 46.8348 95.6689 50.0137C95.5884 50.0907 95.4977 50.1636 95.4206 50.2399C95.2927 50.3384 95.1676 50.4552 95.0404 50.5606C92.7788 52.5561 90.0938 54.2897 86.992 55.7087H108.012C109.013 55.7087 109.839 56.5222 109.839 57.5314C109.839 58.5265 109.013 59.3541 108.012 59.3541H71.6306C71.3241 59.3683 71.0387 59.4128 70.7315 59.427C69.6254 59.4857 68.5484 59.5033 67.5201 59.5033C66.2199 59.5033 65.0164 59.427 63.817 59.3534H59.6294V61.7884C59.9927 64.7986 60.1503 68.1308 59.9791 71.897C59.9149 73.314 59.7938 74.6669 59.6294 75.9839V107.625C59.6294 108.629 58.8088 109.448 57.8028 109.448C56.7969 109.448 55.9763 108.629 55.9763 107.625V88.7361C54.5996 91.5985 52.9367 94.0834 51.0533 96.2045C50.9749 96.2977 50.8896 96.3969 50.8179 96.4827C50.7178 96.5893 50.6041 96.7102 50.4966 96.8317C47.271 100.527 42.9474 103.211 38.0313 104.407V129.177C38.0313 130.181 37.2107 131 36.2047 131C35.1987 131 34.3781 130.181 34.3781 129.177V105.02C34.0717 105.055 33.7578 105.062 33.4439 105.076C32.8587 111.794 27.0435 117.127 19.8583 117.18L8.67093 117.274C8.64996 117.274 8.62831 117.274 8.61411 117.274C6.20913 117.274 4.05446 115.693 2.52759 112.83C1.20772 110.328 0.451401 106.989 0.422989 103.447C0.36615 96.8398 3.31233 91.8233 7.2726 91.7909C7.28681 91.7909 7.30101 91.7909 7.30845 91.7909C9.12758 91.7909 10.833 93.2936 12.1035 96.027C13.1095 98.2129 13.7231 100.89 13.7522 103.233C13.7731 105.258 13.5161 107.334 13.0527 108.929C12.1252 112.169 10.5124 112.853 9.32106 112.866C9.30685 112.866 9.29264 112.866 9.2852 112.866C8.31441 112.866 7.36189 112.403 6.5095 111.535C5.8242 110.837 5.26067 109.933 4.85409 108.878C5.09628 109.705 5.40341 110.467 5.76737 111.136C6.60962 112.73 7.65144 113.635 8.61478 113.635C8.62155 113.635 8.62154 113.635 8.62899 113.635L19.8238 113.542C25.432 113.493 29.9491 109.17 29.9132 103.902C29.899 101.46 28.8998 99.1458 27.0949 97.3873C25.1614 95.4869 22.5643 94.4473 19.7744 94.4473C19.7318 94.4473 19.6959 94.4473 19.6675 94.4473L17.9763 94.4615C19.2643 98.52 20.9874 106.616 16.9845 112.554C16.421 113.387 15.279 113.601 14.4517 113.045C13.6135 112.483 13.3889 111.351 13.9524 110.517C18.2834 104.11 13.7454 93.4941 13.7102 93.3874C13.4707 92.8352 13.5174 92.177 13.853 91.664C14.1878 91.1509 14.7588 90.8377 15.3724 90.8377L19.6459 90.8019C23.5919 90.8377 27.013 92.1763 29.6643 94.7889C31.5551 96.6399 32.7965 98.9399 33.3099 101.432C33.6739 101.411 34.0237 101.411 34.3876 101.364V65.1328C29.0723 66.1582 24.9977 70.5658 24.3983 76.0123C25.1729 76.2972 25.8894 76.7306 26.4745 77.3361C27.5881 78.4615 28.1868 79.9493 28.1726 81.5304C28.1584 83.1074 27.5238 84.5919 26.4001 85.6956C25.2832 86.7845 23.8098 87.39 22.2437 87.39C20.6451 87.39 19.1399 86.7636 18.0162 85.6173C15.733 83.2964 15.7688 79.5436 18.0906 77.2585C18.8395 76.5247 19.7744 76.0623 20.7662 75.8199C21.0943 72.4027 22.4784 69.3122 24.6189 66.8488C22.7429 65.9442 21.3439 64.5562 20.5091 62.6336C17.5981 55.9855 22.5285 45.5407 22.7355 45.0958C23.021 44.4977 23.6055 44.1007 24.2833 44.0656C24.9612 44.0069 25.5748 44.3647 25.9387 44.9324C27.9513 48.1951 29.4633 49.4818 31.1187 50.4147C32.2674 51.0642 33.3877 51.723 34.3863 52.4386V36.9598C34.3788 36.7195 34.3436 36.4825 34.3436 36.2428C34.3436 36.1699 34.3795 36.1146 34.3863 36.0417V35.9512C34.3863 34.9555 35.2069 34.1285 36.2128 34.1285H51.4531C50.6684 33.068 49.9405 31.8643 49.2308 30.6019C48.2918 28.952 47.0153 27.4425 43.7329 25.4328C43.1659 25.0771 42.8378 24.4486 42.873 23.783C42.9123 23.1153 43.3013 22.5206 43.9074 22.2357C44.1753 22.1094 50.5818 19.0905 56.4965 19.0905C61.9194 19.0905 64.4874 21.5842 65.7078 24.1104C68.1622 21.9886 71.2396 20.6148 74.641 20.278C74.8812 19.3025 75.3595 18.3803 76.1165 17.6026C78.3266 15.362 82.2199 15.3101 84.5004 17.5297C86.8276 19.8155 86.8601 23.5676 84.5735 25.8885C83.4444 27.026 81.948 27.6613 80.3514 27.6613C78.7873 27.6613 77.3153 27.0564 76.197 25.9648C75.5834 25.3599 75.141 24.6565 74.8487 23.9011C69.3115 24.5208 64.8811 28.707 63.9468 34.1272H100.231C100.293 33.6782 100.308 33.2374 100.329 32.7885C97.8303 32.2828 95.5295 31.0427 93.6745 29.166C91.0612 26.5069 89.6412 22.9641 89.6696 19.1627L89.7143 14.8908C89.721 14.286 90.0282 13.7162 90.5504 13.3814C91.0646 13.0378 91.712 13.002 92.2775 13.2389C92.3804 13.2815 103.027 17.7957 109.437 13.4793C110.273 12.9183 111.406 13.1282 111.96 13.9795C112.529 14.8125 112.316 15.9359 111.467 16.4982C105.524 20.5156 97.4075 18.7692 93.337 17.4858L93.3227 19.1877C93.2977 22.0129 94.3449 24.6417 96.2784 26.5994C98.0393 28.385 100.358 29.3834 102.807 29.4063C102.835 29.4063 102.867 29.4063 102.883 29.4063C108.129 29.4063 112.414 24.9151 112.462 19.3436L112.556 8.17451C112.556 7.63512 112.285 7.06198 111.727 6.50842C110.873 5.64162 109.48 4.91186 107.796 4.41635C108.841 4.82072 109.747 5.38509 110.459 6.05206C111.337 6.91144 111.8 7.87477 111.786 8.85161C111.749 13.1539 103.745 13.2875 102.119 13.3031C97.4318 13.2518 90.6303 10.7094 90.6593 6.83313C90.704 2.91903 95.6317 0 102.167 0C102.226 0 102.284 0 102.347 0C107.447 0.0425298 111.92 1.52365 114.328 3.97283C115.566 5.22577 116.217 6.70014 116.203 8.23729L116.11 19.3963C116.046 26.573 110.704 32.3774 103.975 32.9613C103.957 33.3582 103.954 33.766 103.913 34.1488H129.61C130.604 34.1488 131.422 34.9697 131.422 35.9715ZM9.08902 109.074C9.53078 108.287 10.1017 106.136 10.0774 103.26C10.0632 101.776 9.7777 100.349 9.39209 99.1235C9.31361 99.4732 9.1208 99.804 8.82856 100.049C8.31441 100.498 7.75089 101.701 7.6758 103.748C7.53711 106.795 8.62493 108.551 9.08902 109.074ZM6.40938 97.3224C6.75981 97.0166 7.18736 96.8668 7.61559 96.8668C7.95045 96.8668 8.29344 96.9559 8.58569 97.1442C8.08643 96.1728 7.59393 95.5531 7.29492 95.4457C6.00685 95.4599 4.1945 98.2939 4.06664 102.776C4.298 100.37 5.11455 98.4579 6.40938 97.3224ZM22.2207 79.2378C21.6213 79.2378 21.0578 79.4619 20.6261 79.8859C19.7345 80.7615 19.7203 82.2135 20.5869 83.104C21.0151 83.5313 21.5929 83.7804 22.2071 83.7804C22.8065 83.7804 23.3626 83.5563 23.8084 83.1256C24.2333 82.7057 24.4903 82.1359 24.4971 81.5311C24.4971 80.9262 24.2691 80.3564 23.8368 79.925C23.4086 79.4761 22.8343 79.2378 22.2207 79.2378ZM34.3606 57.5307C33.8295 56.5431 32.4663 55.3948 29.3016 53.6166C27.5786 52.6465 26.166 51.4436 24.7887 49.7221C23.5974 53.1609 22.4662 58.0809 23.8294 61.1977C24.4355 62.5803 25.4916 63.4815 27.0327 63.9689L27.1605 63.9763C27.2715 63.9763 27.6848 63.9304 27.9919 63.7448C24.2252 61.0087 24.4213 57.1912 24.4355 56.9988C24.51 55.9969 25.3948 55.1977 26.3974 55.3252C27.3925 55.4015 28.1489 56.2791 28.0745 57.283C28.0745 57.3113 27.8918 60.1453 31.7952 61.7189C31.8521 61.7405 31.8845 61.7918 31.9339 61.8094C32.7227 61.916 33.7503 61.6386 34.3599 59.9104V57.5307H34.3606ZM78.7393 23.3921C79.6025 24.2251 81.099 24.2184 81.9554 23.355C82.8274 22.4652 82.8132 21.0178 81.925 20.151C81.4988 19.7305 80.9353 19.4942 80.325 19.4942C79.7115 19.4942 79.1391 19.7278 78.7068 20.1801C77.8294 21.0732 77.8456 22.5098 78.7393 23.3921ZM38.0144 100.587C41.6858 99.451 45.2171 97.2408 48.1748 93.9552C51.079 90.4124 52.8231 85.8914 52.8231 80.9721C52.8231 72.5458 46.2731 65.7032 37.9968 65.0443V100.587H38.0144ZM38.0144 56.8934C38.3458 57.9614 38.3959 59.1489 38.0144 60.5227V61.3361C46.6831 61.8897 53.8331 68.045 55.8768 76.2189C55.9052 76.0406 55.9411 75.8732 55.9587 75.7024V61.7331C55.795 60.4518 55.5697 59.2839 55.3241 58.1538C48.3243 56.4877 43.7437 53.5613 40.9112 50.8556C39.8125 49.8092 38.8525 48.6825 38.0144 47.5025V56.8934ZM43.4399 48.2201C45.6453 50.3276 49.1124 52.5703 54.2282 54.0797C52.7223 49.6938 50.6501 46.6964 48.7268 44.6887C45.8233 41.6556 42.1059 39.8397 38.3384 39.4198C39.0521 42.6325 40.8219 45.7209 43.4399 48.2201ZM56.4688 22.7568C53.6903 22.7568 50.6684 23.5852 48.488 24.3392C50.2118 25.7137 51.4132 27.1246 52.3732 28.8373C54.5854 32.775 55.7801 34.1791 57.3962 34.1488H57.6323C57.8603 34.1278 58.114 34.0759 58.367 34.0063C59.3378 33.7376 59.9649 33.3103 60.2579 32.723C60.5 32.2315 60.4865 31.6483 60.4216 31.1636C58.9021 27.6093 56.305 27.6025 56.0196 27.5951C55.0312 27.7146 54.1605 26.9092 54.0962 25.9148C54.0218 24.9198 54.7707 24.0334 55.7733 23.9639C55.9661 23.9261 59.787 23.7411 62.5235 27.5114C62.7197 27.1752 62.788 26.7425 62.7555 26.6C62.2481 24.9515 61.0352 22.7568 56.4688 22.7568ZM60.1361 37.7942H57.493C57.4504 37.7942 57.4111 37.8171 57.3753 37.8171C57.3144 37.8171 57.2684 37.7942 57.2183 37.7942H45.5385C47.6363 38.8851 49.6117 40.3358 51.3747 42.166C53.8865 44.7792 56.5756 48.9019 58.2953 55.0228C60.04 55.336 61.9058 55.5622 63.9753 55.7087H71.5643C72.7522 55.6317 73.9172 55.5001 75.0246 55.3435C66.9181 53.3317 60.7997 46.3258 60.1361 37.7942ZM63.8684 37.7942C64.6531 45.9194 71.4527 52.3097 79.792 52.3097C84.7237 52.3097 89.2542 50.5639 92.7937 47.6766C96.024 44.7934 98.2071 41.3701 99.3809 37.7942H63.8684ZM94.2915 6.79735C94.393 7.11058 95.014 7.62499 95.9686 8.10565C95.5884 7.45082 95.6472 6.59618 96.1877 5.99131C97.331 4.69718 99.274 3.88574 101.699 3.65622C97.2404 3.78246 94.3057 5.62069 94.2915 6.79735ZM98.9168 8.40471C98.6671 8.68959 98.3532 8.87456 98.0177 8.96029C99.2415 9.35724 100.67 9.64347 102.132 9.66372C104.882 9.61242 107.078 9.13176 107.9 8.69364C107.286 8.1097 105.561 7.10451 102.617 7.25032C100.567 7.32931 99.3646 7.89907 98.9168 8.40471Z" fill="#C18F7C"/>
</svg>
